<svg xmlns="http://www.w3.org/2000/svg" width="431.182" height="184.171" viewBox="0 0 431.182 184.171"><path d="M8.64 111.863a7.953 7.953 0 0 1-2.115-.675 4.407 4.407 0 0 1-1.71-1.439c-.45-.631-.675-1.485-.675-2.565 0-.779.225-1.515.675-2.205a7.657 7.657 0 0 1 1.71-1.845 8.332 8.332 0 0 1 2.25-1.26c.81-.3 1.575-.48 2.295-.54 1.919 0 4.109.6 6.57 1.8a20.491 20.491 0 0 0 2.205-6.3c.39-2.22.585-4.23.585-6.03 0-1.56-.076-3.195-.225-4.905-.15-1.71-.315-3.404-.495-5.085-.18-1.62-.36-3.225-.54-4.814s-.27-3.074-.27-4.455c.059-1.2.194-2.476.405-3.825.209-1.351.524-2.669.945-3.96.419-1.29 2.959-7.46 3.62-8.51.659-1.05 1.469-1.875 2.43-2.476.18-.18.39-.27.63-.27.419 0 .779.211 1.08.63.059.18.09.359.09.54 0 .18-.031.359-.09.54-.06.18-.24.301-.54.359-1.381 1.021-4.43 7.7-5.15 10.04-.72 2.34-1.111 4.65-1.17 6.931 0 1.381.075 2.835.225 4.364.149 1.53.315 3.076.495 4.636.18 1.68.36 3.375.54 5.085.18 1.71.27 3.436.27 5.175 0 2.101-.256 4.32-.765 6.66a30.84 30.84 0 0 1-2.205 6.569c.72.36 1.424.706 2.115 1.035.689.331 1.395.675 2.115 1.035 1.679.9 3.375 1.71 5.085 2.43 1.71.721 3.405 1.08 5.085 1.08 3-.059 5.774-.944 8.325-2.654 2.549-1.71 4.739-3.915 6.57-6.615 1.83-2.7 3.254-5.7 4.275-9 1.02-3.299 1.53-6.57 1.53-9.811 0-3.6-.69-7.109-2.07-10.529-1.381-3.42-3.255-6.48-5.625-9.181a27.591 27.591 0 0 0-8.37-6.479c-3.21-1.62-6.646-2.43-10.305-2.43-3.06 0-5.94.585-8.64 1.755a30.006 30.006 0 0 0-7.38 4.545c-2.22 1.86-4.185 3.96-5.895 6.3s-3.136 4.68-4.275 7.02a3.271 3.271 0 0 1-.675.54c-.211.121-.526.181-.945.181-.421-.182-.63-.662-.63-1.442 1.139-2.52 2.64-5.04 4.5-7.56a36.972 36.972 0 0 1 6.435-6.75 33.638 33.638 0 0 1 8.055-4.86c2.939-1.26 6.089-1.89 9.45-1.89 4.019 0 7.77.886 11.25 2.655a30.934 30.934 0 0 1 9.09 6.976c2.579 2.88 4.604 6.165 6.075 9.854 1.47 3.69 2.234 7.456 2.295 11.295 0 3.301-.54 6.721-1.62 10.261-1.08 3.541-2.625 6.795-4.635 9.765-2.011 2.97-4.441 5.415-7.29 7.335-2.851 1.921-6.016 2.88-9.495 2.88-2.4 0-4.561-.405-6.48-1.215a53.149 53.149 0 0 1-5.58-2.745c-.481-.3-.96-.569-1.44-.81-.481-.239-.96-.479-1.44-.721l-.54-.18c-1.08 1.8-2.295 3.24-3.645 4.32s-2.835 1.62-4.455 1.62c-.54 0-1.17-.06-1.89-.18zm5.22-3.239c1.02-.721 1.949-1.891 2.79-3.511-1.021-.54-1.996-.914-2.925-1.125a12.127 12.127 0 0 0-2.655-.314c-1.08 0-2.146.375-3.195 1.125-1.05.751-1.575 1.575-1.575 2.475 0 .9.405 1.53 1.215 1.89.81.36 1.814.54 3.015.54 1.199-.001 2.309-.361 3.33-1.08zM64.169 111.468c-1.44-.689-2.596-1.575-3.465-2.655a11.022 11.022 0 0 1-1.935-3.6 18.68 18.68 0 0 1-.81-3.87c0-.181-.014-.39-.045-.63a5.355 5.355 0 0 1-.045-.63c0-1.44.225-2.984.675-4.636a17.398 17.398 0 0 1 1.98-4.59 15.815 15.815 0 0 1 3.06-3.645c1.17-1.02 2.475-1.68 3.915-1.98h2.43c1.499.121 2.819.78 3.96 1.98 1.139 1.2 1.71 2.641 1.71 4.319 0 2.102-.585 3.735-1.755 4.905s-2.596 2.115-4.275 2.835c-2.761.961-5.521 1.44-8.28 1.44h-1.17v.54c.059 1.14.254 2.25.585 3.33a8.372 8.372 0 0 0 1.575 2.925c.72.87 1.679 1.561 2.88 2.069 1.2.511 2.7.766 4.5.766 1.919 0 3.629-.345 5.13-1.035a14.537 14.537 0 0 0 3.96-2.655 18.425 18.425 0 0 0 2.97-3.645 82.332 82.332 0 0 0 2.34-4.005c.3-.3.66-.45 1.08-.45h.36c.419.24.63.57.63.99 0 .24-.701.22-.76.34-.72 1.381-1.3 2.915-2.229 4.354-.931 1.44-1.617 2.852-2.906 4.08-1.291 1.23-2.806 2.236-4.545 3.016-1.741.78-3.75 1.17-6.03 1.17-2.221.002-4.05-.344-5.49-1.033zm4.59-14.355c1.379-.54 2.504-1.244 3.375-2.114.869-.869 1.305-2.025 1.305-3.466 0-1.139-.421-2.1-1.26-2.88-.841-.779-1.771-1.17-2.79-1.17h-.45c-1.08 0-2.115.301-3.105.9a9.661 9.661 0 0 0-2.61 2.34 13.98 13.98 0 0 0-1.89 3.285 15.377 15.377 0 0 0-1.035 3.734l-.18.811h1.62c2.399 0 4.739-.479 7.02-1.44zM119.428 71.813c-.299-.3-.45-.689-.45-1.17 0-.479.151-.869.45-1.17.419-.36.81-.54 1.17-.54.419 0 .81.18 1.17.54.36.36.54.751.54 1.17 0 .421-.18.81-.54 1.17-.36.36-.751.54-1.17.54-.36 0-.751-.18-1.17-.54zm4.365 39.061c-.81-.42-1.53-.96-2.16-1.62s-1.156-1.44-1.575-2.341c-.42-.899-.63-1.8-.63-2.699v-18.63c0-.779.36-1.171 1.08-1.171.779 0 1.17.392 1.17 1.171v18.63c0 .66.135 1.291.405 1.89.27.601.63 1.141 1.08 1.62.45.48.945.87 1.485 1.17.54.301 1.049.45 1.53.45 1.2 0 2.279-.226 3.24-.675.959-.45 1.875-1.095 2.745-1.936.869-.84 1.74-1.859 2.61-3.06a105.83 105.83 0 0 0 2.835-4.141l-.18.181c.12-.181.254-.405.405-.676.149-.27.375-.554.675-.854.12-.3.419-.45.9-.45.239 0 .45.09.63.271.059.12.135.24.225.359.09.121.135.271.135.45 0 .24-.09.45-.27.63l-.99 2.07c-.9 1.381-1.771 2.67-2.61 3.87a17.747 17.747 0 0 1-2.79 3.149c-1.021.9-2.13 1.62-3.33 2.16-1.201.54-2.61.811-4.23.811-.781 0-1.575-.211-2.385-.629z"/><path d="M148.677 110.468a20.16 20.16 0 0 1-5.13-2.79 15.812 15.812 0 0 1-3.87-4.141c-1.02-1.589-1.53-3.284-1.53-5.085v-.54c.121-2.219.675-4.198 1.665-5.939.99-1.739 2.219-3.195 3.69-4.365a15.874 15.874 0 0 1 4.905-2.655c1.8-.599 3.6-.899 5.399-.899 1.14 0 2.205.09 3.195.27a8.64 8.64 0 0 1 2.745.99c.181.121.329.225.45.315.119.09.18.285.18.585 0 .24-.031.42-.09.54-.301.42-.661.63-1.08.63h-.359c-1.501-.779-3.182-1.17-5.041-1.17-1.561 0-3.104.27-4.635.81a14.58 14.58 0 0 0-4.185 2.295c-1.26.99-2.326 2.221-3.195 3.69-.871 1.471-1.365 3.136-1.485 4.995v.27c0 1.44.435 2.821 1.305 4.14.869 1.321 1.964 2.507 3.285 3.556a15.87 15.87 0 0 0 4.41 2.475c1.62.601 3.209.9 4.77.9 1.679 0 3.314-.284 4.905-.855a18.949 18.949 0 0 0 4.455-2.295 19.193 19.193 0 0 0 3.734-3.42 21.899 21.899 0 0 0 2.835-4.32c.12-.299.3-.494.54-.585.239-.09.45-.135.63-.135h.45c.419.301.63.661.63 1.08 0 .24-.061.421-.18.54a23.179 23.179 0 0 1-3.149 4.725 24.202 24.202 0 0 1-4.186 3.87c-1.53 1.111-3.195 1.98-4.995 2.61s-3.69.945-5.67.945c-1.739-.002-3.539-.348-5.398-1.037z"/><path d="M199.302 110.828a7.999 7.999 0 0 1-2.16-1.755 9.774 9.774 0 0 1-1.53-2.34 7.125 7.125 0 0 1-.675-2.52c-1.561 1.921-3.6 3.615-6.12 5.085-2.52 1.471-5.22 2.205-8.1 2.205-1.261 0-2.521-.271-3.78-.811s-2.4-1.26-3.42-2.16a11.634 11.634 0 0 1-2.521-3.149c-.659-1.2-.99-2.46-.99-3.78v-.09c0-3.119.9-5.805 2.7-8.055 1.801-2.25 4.006-4.08 6.615-5.49a32.744 32.744 0 0 1 8.19-3.105c2.849-.659 5.324-.989 7.425-.989h1.171c.119.12.21.18.27.18s.149.031.271.09c.059.061.09.15.09.27 0 .061.06.151.18.271v.27l.091 14.761c.119.061.18.121.18.18V100.346c0 .061-.031.09-.09.09h-.09l.18 3.24c0 .661.135 1.32.405 1.979.27.661.63 1.26 1.08 1.8.449.54.959.99 1.529 1.351.569.359 1.125.54 1.665.54.66 0 1.499-.345 2.521-1.035 1.02-.689 2.129-1.575 3.33-2.655 1.02-1.02 2.054-2.219 3.104-3.6a64.647 64.647 0 0 0 2.745-3.87v.09c.119-.3.284-.479.495-.54.209-.059.405-.09.585-.09.239 0 .45.09.63.27l-.09-.18c.419.301.63.661.63 1.08 0 .24-.09.45-.27.63a48.198 48.198 0 0 1-2.835 3.87 47.955 47.955 0 0 1-3.466 3.87 42.22 42.22 0 0 1-3.689 2.97c-1.26.9-2.49 1.351-3.69 1.351a5.25 5.25 0 0 1-2.566-.679zm-13.771-2.385a17.223 17.223 0 0 0 4.186-2.34c1.26-.959 2.34-1.994 3.239-3.104.9-1.11 1.53-2.175 1.891-3.195l-.181-13.771c-1.979.061-4.261.392-6.84.99a28.969 28.969 0 0 0-7.335 2.79c-2.311 1.26-4.274 2.835-5.895 4.725-1.62 1.891-2.431 4.156-2.431 6.796v.18c0 1.021.255 1.995.766 2.925a9.212 9.212 0 0 0 1.979 2.475 10.446 10.446 0 0 0 2.745 1.756c1.02.449 2.039.675 3.061.675a13.114 13.114 0 0 0 4.815-.902z"/><path d="M213.116 78.383c0-.3.121-.569.359-.811.241-.238.511-.359.811-.359h6.39v-17.73c0-.3.12-.569.36-.81.239-.239.509-.36.81-.36.3 0 .555.121.766.36.209.24.314.51.314.81v17.73h8.101c.238 0 .479.121.72.359.239.241.36.511.36.811 0 .301-.121.54-.36.72-.24.18-.481.271-.72.271h-8.101v25.47c0 1.381.555 2.461 1.665 3.24 1.109.78 2.265 1.17 3.465 1.17 2.399 0 4.41-.99 6.03-2.971 1.62-1.979 3.359-4.648 5.22-8.01.12-.3.284-.479.495-.54.21-.059.405-.09.585-.09.239 0 .45.09.63.27l-.09-.18c.419.301.63.601.63.9 0 .121-.03.24-.09.359a.792.792 0 0 0-.09.36c-.96 1.62-1.89 3.165-2.79 4.635-.9 1.472-1.876 2.745-2.925 3.825-1.051 1.08-2.176 1.95-3.375 2.61-1.201.661-2.61.989-4.23.989-.78 0-1.605-.135-2.475-.404a7.817 7.817 0 0 1-2.385-1.215 6.885 6.885 0 0 1-1.8-2.025c-.481-.81-.721-1.784-.721-2.925v-11.97a69.632 69.632 0 0 1-4.95 6.569c-.24.24-.51.36-.81.36-.059 0-.18-.015-.36-.045a.786.786 0 0 1-.449-.226c-.239-.119-.36-.419-.36-.899 0-.239.09-.45.27-.63a74.74 74.74 0 0 0 3.511-4.365 36.628 36.628 0 0 0 3.149-5.085v-9.18h-6.39c-.779.003-1.17-.327-1.17-.988z"/><path d="M245.605 110.468c-1.44-.689-2.596-1.575-3.465-2.655a11.006 11.006 0 0 1-1.936-3.6 18.746 18.746 0 0 1-.81-3.87c0-.181-.015-.39-.045-.63a5.148 5.148 0 0 1-.045-.63c0-1.44.225-2.984.675-4.636a17.428 17.428 0 0 1 1.979-4.59 15.818 15.818 0 0 1 3.061-3.645c1.17-1.02 2.475-1.68 3.915-1.98h2.43c1.499.121 2.819.78 3.96 1.98 1.139 1.2 1.71 2.641 1.71 4.319 0 2.102-.585 3.735-1.755 4.905s-2.596 2.115-4.275 2.835c-2.76.961-5.521 1.44-8.279 1.44h-1.17v.54c.059 1.14.254 2.25.585 3.33a8.37 8.37 0 0 0 1.574 2.925c.721.87 1.68 1.561 2.881 2.069 1.199.511 2.699.766 4.5.766 1.919 0 3.629-.345 5.13-1.035a14.552 14.552 0 0 0 3.96-2.655 18.425 18.425 0 0 0 2.97-3.645 81.524 81.524 0 0 0 2.34-4.005c.3-.3.66-.45 1.08-.45h.36c.419.24.63.57.63.99 0 .24-.031.42-.09.54a52.992 52.992 0 0 1-2.476 4.229 22.08 22.08 0 0 1-3.33 4.005c-1.291 1.23-2.805 2.236-4.545 3.016-1.74.78-3.75 1.17-6.029 1.17-2.22.002-4.05-.344-5.49-1.033zm4.59-14.355c1.38-.54 2.505-1.244 3.375-2.114.869-.869 1.305-2.025 1.305-3.466 0-1.139-.42-2.1-1.26-2.88-.841-.779-1.771-1.17-2.79-1.17h-.45c-1.08 0-2.114.301-3.104.9a9.676 9.676 0 0 0-2.61 2.34 13.98 13.98 0 0 0-1.89 3.285 15.377 15.377 0 0 0-1.035 3.734l-.18.811h1.619c2.399 0 4.739-.479 7.02-1.44z"/><path d="M276.924 111.143a7.046 7.046 0 0 1-2.024-.855 5.862 5.862 0 0 1-1.575-1.395c-.421-.54-.63-1.17-.63-1.89 0-1.38.345-2.415 1.035-3.105.688-.688 1.574-1.184 2.654-1.485.779-.18 1.665-.283 2.655-.314.99-.029 2.084-.045 3.285-.045h1.35l2.07-.18.45-.9c.059-.3.09-.54.09-.72v-.811c0-1.02-.735-2.055-2.205-3.104-1.471-1.05-3.465-2.325-5.985-3.825h.09a27.978 27.978 0 0 1-2.34-1.305c-.72-.45-1.471-.975-2.25-1.575l-.27.54c-.481.72-.977 1.455-1.485 2.205-.511.751-1.005 1.484-1.484 2.205a49.506 49.506 0 0 0-2.881 4.59c-.42.42-.78.63-1.079.63h-.45a.685.685 0 0 1-.495-.405 1.49 1.49 0 0 1-.135-.585c0-.239.09-.45.27-.63l-.09.09c.54-.899.976-1.62 1.305-2.16s.615-1.004.855-1.395c.239-.39.464-.766.675-1.125.21-.36.464-.779.765-1.26.3-.479.63-1.005.99-1.575.36-.569.689-1.095.99-1.575l.72-1.08c-.899-.779-1.65-1.604-2.25-2.475-.601-.869-.899-1.965-.899-3.285 0-.779.314-1.634.944-2.565.63-.93 1.425-1.454 2.385-1.575h.271c.9 0 1.829.315 2.79.945.959.63 1.499 1.516 1.62 2.655 0 .841-.181 1.786-.54 2.835-.36 1.051-.871 2.115-1.53 3.195.3.24.811.585 1.53 1.034.72.45 1.319.796 1.8 1.035.18.121.39.256.63.405.239.15.45.285.63.405l-.09-.181.99.54a193.8 193.8 0 0 1 2.97 1.71 19.375 19.375 0 0 1 2.745 1.936 11.57 11.57 0 0 1 2.025 2.205c.54.78.81 1.62.81 2.52 0 .421-.031.796-.09 1.125-.061.331-.121.646-.18.945l-.181.36c1.8 0 3.465-.255 4.995-.766 1.53-.509 2.714-1.395 3.555-2.655.42-.54.84-.81 1.261-.81.238 0 .449.09.63.27l-.09-.18c.419.301.63.661.63 1.08a.443.443 0 0 1-.09.225.552.552 0 0 0-.091.315c-1.26 1.921-2.91 3.181-4.949 3.78-2.041.601-4.141.96-6.301 1.08h-.27l-.63 1.17a10.968 10.968 0 0 1-3.42 4.319c-1.501 1.141-3.03 1.71-4.59 1.71-.541.002-1.17-.088-1.891-.268zm-5.67-27.045c.18.571.509 1.096.99 1.575l.54.54.27-.271v.09c.36-.778.66-1.484.9-2.114.239-.631.36-1.185.36-1.665v-.45c0-.3-.181-.585-.54-.855-.36-.27-.721-.404-1.08-.404h-.45c-.301.061-.585.27-.855.63a1.91 1.91 0 0 0-.404 1.17c-.001.6.089 1.185.269 1.754zm3.24 3.735v-.091c-.121.001-.121.032 0 .091zm7.605 20.07c1.11-.899 1.994-2.039 2.655-3.42l.09-.27h-2.52c-1.021 0-1.98.016-2.88.045-.9.03-1.71.135-2.431.314-1.439.36-2.159 1.17-2.159 2.431 0 .601.435 1.125 1.305 1.574.869.45 1.755.676 2.655.676 1.081 0 2.174-.45 3.285-1.35z"/><path d="M296.454 78.383c0-.3.121-.569.359-.811.241-.238.511-.359.811-.359h6.39v-17.73c0-.3.12-.569.36-.81.239-.239.509-.36.81-.36.3 0 .555.121.766.36.209.24.314.51.314.81v17.73h8.101c.238 0 .479.121.72.359.239.241.36.511.36.811 0 .301-.121.54-.36.72-.24.18-.481.271-.72.271h-8.101v25.47c0 1.381.555 2.461 1.665 3.24 1.109.78 2.265 1.17 3.465 1.17 2.399 0 4.41-.99 6.03-2.971 1.62-1.979 3.359-4.648 5.221-8.01.119-.3.283-.479.494-.54a2.19 2.19 0 0 1 .586-.09c.238 0 .449.09.629.27l-.09-.18c.42.301.631.601.631.9 0 .121-.031.24-.09.359a.792.792 0 0 0-.09.36 388.241 388.241 0 0 1-2.791 4.635c-.9 1.472-1.876 2.745-2.925 3.825-1.051 1.08-2.176 1.95-3.375 2.61-1.201.661-2.61.989-4.23.989-.78 0-1.605-.135-2.475-.404a7.817 7.817 0 0 1-2.385-1.215 6.885 6.885 0 0 1-1.8-2.025c-.481-.81-.721-1.784-.721-2.925v-11.97a69.632 69.632 0 0 1-4.95 6.569c-.24.24-.51.36-.81.36-.059 0-.18-.015-.36-.045a.786.786 0 0 1-.449-.226c-.239-.119-.36-.419-.36-.899 0-.239.09-.45.27-.63a74.74 74.74 0 0 0 3.511-4.365 36.628 36.628 0 0 0 3.149-5.085v-9.18h-6.39c-.779.003-1.17-.327-1.17-.988z"/><path d="M356.213 110.874a6.253 6.253 0 0 1-1.979-1.665 9.651 9.651 0 0 1-1.307-2.205c-.33-.779-.494-1.53-.494-2.25V91.703c0-1.26-.166-2.488-.494-3.689-.332-1.199-.916-1.8-1.756-1.8-1.861 0-3.6.42-5.221 1.26-1.619.841-3.18 1.95-4.68 3.33-.84.78-1.635 1.561-2.385 2.34-.75.78-1.516 1.591-2.295 2.43a93.97 93.97 0 0 1-3.42 3.601v11.16c0 .42-.121.72-.359.899-.24.18-.482.271-.721.271-.721 0-1.08-.39-1.08-1.17V99.443c-.061-.059-.09-.27-.09-.63v-.09c0-.119.029-.21.09-.271v-7.02l-2.16 3.42-3.061 4.59.092-.09c-.121.18-.227.33-.316.45-.09.121-.285.18-.584.18a.963.963 0 0 1-.541-.18.685.685 0 0 1-.494-.405 1.49 1.49 0 0 1-.135-.585c0-.239.09-.45.27-.63h-.09c.359-.659.75-1.29 1.17-1.89.418-.6.84-1.229 1.26-1.891a52.49 52.49 0 0 0 1.846-2.88c.568-.959 1.154-1.919 1.754-2.88l.99-1.26v-31.23c0-2.64.42-4.799 1.26-6.48.48-.9 1.08-1.665 1.801-2.295.719-.63 1.68-.945 2.879-.945 1.08 0 2.025.465 2.836 1.395.811.931 1.498 2.056 2.07 3.375a21.438 21.438 0 0 1 1.305 4.185c.299 1.471.449 2.745.449 3.825 0 4.68-.824 9.18-2.475 13.5a68.855 68.855 0 0 1-6.254 12.42l-1.711 2.88v8.1c.299-.299.586-.599.855-.899.27-.3.553-.6.855-.9a379.937 379.937 0 0 1 3.51-3.645 30.715 30.715 0 0 1 3.824-3.33c1.35-.99 2.76-1.785 4.23-2.386 1.469-.599 3.045-.899 4.725-.899.959 0 1.74.285 2.34.854.6.571 1.049 1.261 1.35 2.07s.51 1.651.631 2.521c.119.87.18 1.605.18 2.204v13.051c0 1.08.42 2.114 1.26 3.104s1.77 1.485 2.791 1.485c1.26 0 2.443-.345 3.555-1.035 1.109-.689 2.174-1.575 3.195-2.655a37.475 37.475 0 0 0 2.295-3.015 62.743 62.743 0 0 0 2.385-3.735l.9-1.17-.182.18c.121-.299.256-.464.406-.494.148-.03.314-.045.494-.045.301 0 .541.06.721.18.299.121.449.42.449.899 0 .241-.031.392-.09.45-.121.301-.24.556-.359.766-.121.211-.359.525-.721.944h.18a75.047 75.047 0 0 1-2.43 3.601c-.9 1.26-1.889 2.43-2.969 3.51s-2.281 1.979-3.602 2.7a8.699 8.699 0 0 1-4.229 1.08 5.242 5.242 0 0 1-2.519-.628zm-24.029-27.361c2.398-3.899 4.379-7.875 5.939-11.925 1.561-4.051 2.34-8.175 2.34-12.375 0-1.02-.135-2.16-.404-3.42a22.757 22.757 0 0 0-1.125-3.69c-.48-1.139-.977-1.994-1.484-2.565-.512-.569-1.006-.855-1.486-.855-1.141 0-2.01.63-2.609 1.89-.301.78-.57 1.651-.811 2.61-.24.96-.359 1.95-.359 2.97v27.36z"/><path d="M377.004 110.468c-1.441-.689-2.596-1.575-3.465-2.655a10.987 10.987 0 0 1-1.936-3.6 18.685 18.685 0 0 1-.811-3.87c0-.181-.014-.39-.045-.63a5.355 5.355 0 0 1-.045-.63c0-1.44.225-2.984.676-4.636a17.395 17.395 0 0 1 1.979-4.59 15.818 15.818 0 0 1 3.061-3.645c1.17-1.02 2.475-1.68 3.916-1.98h2.43c1.498.121 2.818.78 3.959 1.98 1.139 1.2 1.711 2.641 1.711 4.319 0 2.102-.586 3.735-1.756 4.905s-2.596 2.115-4.275 2.835c-2.76.961-5.52 1.44-8.279 1.44h-1.17v.54c.059 1.14.254 2.25.586 3.33a8.353 8.353 0 0 0 1.574 2.925c.721.87 1.68 1.561 2.881 2.069 1.199.511 2.699.766 4.5.766 1.918 0 3.629-.345 5.129-1.035 1.5-.689 2.82-1.575 3.961-2.655a18.385 18.385 0 0 0 2.969-3.645 80.732 80.732 0 0 0 2.34-4.005c.301-.3.66-.45 1.08-.45h.361c.418.24.629.57.629.99 0 .24-.031.42-.09.54a52.971 52.971 0 0 1-2.475 4.229 22.163 22.163 0 0 1-3.33 4.005c-1.291 1.23-2.805 2.236-4.545 3.016-1.74.78-3.75 1.17-6.029 1.17-2.222.002-4.052-.344-5.491-1.033zm4.59-14.355c1.379-.54 2.504-1.244 3.375-2.114.869-.869 1.305-2.025 1.305-3.466 0-1.139-.42-2.1-1.26-2.88-.842-.779-1.771-1.17-2.791-1.17h-.449c-1.08 0-2.115.301-3.105.9a9.672 9.672 0 0 0-2.609 2.34 13.982 13.982 0 0 0-1.891 3.285 15.422 15.422 0 0 0-1.035 3.734l-.18.811h1.619c2.4 0 4.739-.479 7.021-1.44z"/><path d="M413.857 110.828a8.558 8.558 0 0 1-2.52-1.619 10.032 10.032 0 0 1-1.891-2.341c-.51-.869-.766-1.755-.766-2.654 0-1.801.18-3.45.541-4.95a38.723 38.723 0 0 1 1.26-4.23l.674-2.205c.211-.688.346-1.273.406-1.755l.18-1.17-.18-.09c0-.119-.33-.329-.99-.63a6.586 6.586 0 0 0-1.08-.855 6.786 6.786 0 0 0-1.08-.585 2.64 2.64 0 0 1-.721-.404 2.739 2.739 0 0 0-.719-.405h-.271v.18c-.84 2.102-1.965 4.261-3.375 6.48-1.41 2.221-2.984 4.2-4.725 5.939-.301.302-.539.45-.719.45-.42 0-.689-.148-.811-.45-.24-.059-.359-.299-.359-.72 0-.3.119-.569.359-.81 1.619-1.56 3.09-3.39 4.41-5.49 1.318-2.1 2.369-4.17 3.15-6.21l.18-.63-1.441-1.17c-1.26-.959-1.889-2.07-1.889-3.33 0-.84.283-1.665.855-2.476.568-.81 1.334-1.273 2.295-1.395h.27c.719 0 1.484.27 2.295.81s1.215 1.351 1.215 2.431c0 1.26-.27 2.641-.811 4.14l-.09.09.631.36.539.359c.18.121.391.241.631.36l-.18-.18c.418.18.809.375 1.17.585.359.211.719.404 1.08.585.059.061.148.135.27.225.119.09.238.195.359.315.359.24.75.54 1.17.899.42.36.66.781.721 1.261v.27c0 .841-.121 1.696-.359 2.565a213.6 213.6 0 0 1-.811 2.835c-.361 1.26-.752 2.654-1.17 4.185a18.034 18.034 0 0 0-.631 4.815c0 .601.18 1.2.541 1.8a6.842 6.842 0 0 0 1.35 1.62 7.12 7.12 0 0 0 1.799 1.17c.66.301 1.291.45 1.891.45 1.32 0 2.551-.345 3.689-1.035 1.141-.689 2.221-1.575 3.24-2.655s1.98-2.264 2.881-3.555c.9-1.29 1.77-2.565 2.609-3.825v.09c.119-.419.48-.63 1.08-.63.18 0 .33.031.451.09.479.301.719.661.719 1.08 0 .061-.031.166-.09.315-.061.15-.09.256-.09.314a346.355 346.355 0 0 0-2.699 3.915 28.876 28.876 0 0 1-3.195 3.915 16.59 16.59 0 0 1-3.871 2.97c-1.41.781-2.984 1.17-4.725 1.17-.837.001-1.722-.195-2.652-.584zm-9.045-27.945l.719.63.182-.54c.18-.479.299-.93.359-1.35.059-.42.09-.779.09-1.08 0-.3-.15-.54-.449-.721a1.75 1.75 0 0 0-.9-.27c-.301.121-.572.346-.811.675-.24.33-.359.646-.359.945 0 .721.388 1.292 1.169 1.711z"/><g><path d="M125.988 184.174c-2.487 0-4.58-1.469-6.961-3.139l-.104-.073c-4.917-2.767-9.743-7.206-13.246-12.19-4.104-5.866-6.304-12.666-8.432-19.242-1.095-3.383-2.224-6.874-3.599-10.176l-.427-.03-.208-.899c-1.4-6.053-3.12-12.14-5.259-18.609-.225-.77-.472-1.566-.733-2.412-1.416-4.577-3.355-10.845-2.739-15.64.081-.625.205-1.223.371-1.783-.516-.771-.95-1.691-1.316-2.791-.783-2.305-1.156-5.084-1.485-7.537-.232-1.73-.452-3.365-.78-4.638-.455-2.009-1.06-4.012-1.646-5.949-1.065-3.522-2.166-7.165-2.451-10.99-.059-1.877.083-3.638.22-5.341.279-3.463.542-6.734-.944-9.901-.534-1.155-1.205-2.296-1.853-3.4-2.474-4.209-5.277-8.979.827-13.83l.383-.304.488.036a13.7 13.7 0 0 0 .589-.24c6.682-2.688 10.75-7.075 14.071-15.158l1.008-2.659C93.887 11.646 97.101 3.13 104.578.656c3.366-1.197 10.984-.909 15.199 2.289 2.092 1.588 3.109 3.716 2.94 6.154-.067.99-.268 2.222-1.231 2.963-.985.757-2.272.617-3.153.447l-.121-.029c-2.269-.678-2.47-2.162-2.59-3.048-.06-.438-.096-.632-.224-.778-2.438-2.51-4.084-3.018-7.01-2.116-5.325 1.514-9.963 6.259-12.129 12.392-.282.807-.521 1.64-.71 2.47-1.708 7.163 3.487 11.255 8.988 15.588l1.852 1.459-.774.412c1.736 3.765 1.909 8.937 2.062 13.516.055 1.65.107 3.208.229 4.566.406 5.581 1.103 11.014 1.776 16.268l.068.535c.726 6.477.865 11.715.467 17.534l-.09 1.272c-.407 5.692-.728 10.189 2.045 15.175l.051.103c1.834 4.157 2.204 8.887 2.562 13.461.126 1.614.245 3.14.426 4.635.46 3.15 1.005 6.396 1.531 9.535.526 3.131 1.069 6.37 1.535 9.554.379 2.245.649 4.492.911 6.665.553 4.596 1.075 8.936 2.577 13.375.731 2.249 2.036 5.418 4.128 7.819.914 1.052 2.054 1.895 3.262 2.787 1.863 1.378 3.789 2.802 4.959 5.096l.287.562-.282.57c-.583 1.17-7.089 2.203-7.155 2.213-.334.05-.658.074-.976.074zm-30.751-47.212l.11.008.3.698c1.556 3.612 2.787 7.415 3.976 11.092 2.071 6.4 4.213 13.02 8.1 18.576 3.307 4.705 7.855 8.889 12.477 11.476l.263.177c2.429 1.703 4.185 2.93 6.128 2.639 1.337-.199 3.203-.647 4.472-.99-.917-1.136-2.13-2.032-3.396-2.968-1.263-.934-2.568-1.899-3.661-3.156-2.368-2.719-3.817-6.218-4.615-8.674-1.58-4.671-2.142-9.344-2.686-13.863-.258-2.145-.524-4.361-.897-6.575-.466-3.185-1.007-6.41-1.531-9.529-.529-3.151-1.076-6.41-1.544-9.618-.191-1.578-.318-3.201-.44-4.77-.339-4.346-.691-8.839-2.333-12.596-3.104-5.615-2.743-10.668-2.326-16.516l.089-1.265c.387-5.661.251-10.765-.455-17.065l-.066-.515c-.678-5.288-1.379-10.755-1.788-16.383-.126-1.407-.18-3-.236-4.686-.146-4.387-.312-9.348-1.881-12.652-1.204.163-2.328-.273-3.346-.701-.79-.332-1.525-.639-2.3-.613-.875.039-1.577.371-2.389.755-1.108.524-2.37 1.113-4.169.993-1.52-.105-2.852-.783-4.028-1.38-.955-.485-1.857-.944-2.661-1-.836-.051-1.673.16-2.559.387-1.519.39-3.395.873-5.121-.479l-.036.013-.248.088-.033-.002c-3.759 3.199-2.516 5.773.144 10.301.679 1.156 1.381 2.351 1.964 3.611 1.766 3.761 1.463 7.521 1.17 11.157-.132 1.635-.268 3.325-.216 5.009.261 3.497 1.322 7.005 2.348 10.398.598 1.979 1.216 4.025 1.682 6.084.356 1.38.585 3.086.828 4.893.329 2.454.67 4.991 1.376 7.072.363 1.088.803 1.956 1.311 2.588l.445.555-.249.664a8.473 8.473 0 0 0-.451 1.883c-.547 4.256 1.3 10.224 2.648 14.581.266.86.517 1.67.732 2.408 2.046 6.183 3.72 12.058 5.098 17.89zM84.136 35.351c.144 0 .289.005.436.015 1.314.09 2.49.688 3.626 1.265 1.057.538 2.054 1.045 3.067 1.115 1.16.081 1.975-.309 2.927-.758.923-.437 1.969-.932 3.352-.993.829-.037 1.568.133 2.24.361-4.502-3.847-8.352-8.47-6.669-15.523l.042-.182-.078.205c-3.075 7.486-6.763 12.065-12.312 15.085.144-.035.296-.074.456-.115.87-.224 1.845-.475 2.913-.475zm25.115-32.852c-1.538 0-2.914.185-3.863.522-4.705 1.557-7.446 5.913-9.681 11.108 2.792-4.93 7.131-8.612 11.97-9.988 4.37-1.346 6.901.081 9.559 2.822.678.775.784 1.561.862 2.134.09.665.104.767.769.971.885.162 1.092.016 1.094.014.008-.006.194-.16.261-1.153.111-1.602-.529-2.907-1.958-3.991-2.25-1.709-5.952-2.439-9.013-2.439z"/></g><g><path d="M108.7 103.499c10.152 4.35 10.896-8.903 12.986-15.413.208-.65-2.197-1.321-2.424-.613-1.346 4.194-2.466 18.345-9.681 15.254-.998-.428-2.443.103-.881.772z"/></g></svg>