<svg id="Layer_1" xmlns="http://www.w3.org/2000/svg" viewBox="0 0 253.2 88.4"><style>.st0{fill:#fff}</style><path d="M75.9 37.8L77.3 7c0-.7.2-1.2.5-1.5s.8-.4 1.5-.4l16.1.7c.5 0 .9.2 1.1.6.2.4.3 1 .3 1.9l-.1 1.5c0 .8-.2 1.5-.4 1.8-.2.4-.6.6-1.2.5l-10.5-.5-.3 7.1 10.2.5c.5 0 .9.2 1.1.6.2.4.3 1 .3 1.9l-.1 1.5c0 .8-.2 1.5-.4 1.8-.2.4-.6.6-1.2.5L84 25.3l-.6 12.8c0 1-1 1.5-3 1.4l-1.7-.1c-1.9 0-2.8-.6-2.8-1.6z"/><path class="st0" d="M101 37.4c-1.9-2.4-2.8-5.7-2.6-10 .2-4.3 1.4-7.5 3.5-9.7s5.1-3.2 9-3c3.9.2 6.8 1.4 8.7 3.8 1.9 2.3 2.8 5.7 2.6 9.9-.2 4.3-1.3 7.5-3.5 9.7-2.1 2.2-5.1 3.2-9 3-3.9-.1-6.8-1.3-8.7-3.7zm12.5-3.6c.8-1.2 1.2-3.1 1.4-5.6s-.2-4.4-.8-5.6c-.7-1.3-1.8-1.9-3.3-2-1.5-.1-2.7.5-3.5 1.7-.8 1.2-1.3 3-1.4 5.5-.2 5 1.2 7.6 4.2 7.7 1.4.1 2.6-.5 3.4-1.7z"/><path d="M110.6 41.7h-.9c-4-.2-7.1-1.5-9.1-4-2-2.4-2.9-5.9-2.7-10.3.2-4.4 1.4-7.7 3.6-10s5.4-3.3 9.4-3.1c4 .2 7.1 1.5 9 4 2 2.4 2.9 5.9 2.7 10.3-.2 4.4-1.4 7.7-3.6 10-2 2.1-4.8 3.1-8.4 3.1zm-.5-26.4c-3.3 0-5.9 1-7.8 2.8-2 2.1-3.2 5.2-3.3 9.3-.2 4.1.6 7.4 2.5 9.6 1.8 2.2 4.6 3.5 8.3 3.6 3.7.2 6.6-.8 8.6-2.8 2-2.1 3.1-5.2 3.3-9.4.2-4.1-.6-7.4-2.5-9.6-1.8-2.2-4.6-3.4-8.3-3.6-.3.1-.6.1-.8.1zm.1 20.7h-.3c-1.7-.1-3-.8-3.7-2.3-.8-1.4-1.1-3.3-.9-5.9.1-2.6.6-4.5 1.5-5.8.9-1.4 2.2-2 4-1.9 1.7.1 3 .8 3.7 2.3.7 1.4 1 3.3.9 5.9-.1 2.6-.6 4.5-1.4 5.8-1 1.2-2.2 1.9-3.8 1.9zm.2-15c-1.2 0-2.2.5-2.8 1.5-.8 1.1-1.2 2.9-1.3 5.3-.1 2.4.2 4.2.8 5.4.6 1.1 1.6 1.7 2.9 1.8 1.3.1 2.4-.4 3-1.5.7-1.1 1.2-2.9 1.3-5.3.1-2.4-.2-4.2-.8-5.4-.6-1.1-1.5-1.7-2.9-1.8 0 .1-.1 0-.2 0z"/><path class="st0" d="M128.9 38.7c-1.9-2.4-2.8-5.7-2.6-10 .2-4.3 1.4-7.5 3.5-9.7 2.1-2.2 5.1-3.2 9-3 3.9.2 6.8 1.4 8.7 3.8 1.9 2.3 2.8 5.7 2.6 9.9-.2 4.3-1.3 7.5-3.5 9.7-2.1 2.2-5.1 3.2-9 3-3.9-.1-6.8-1.4-8.7-3.7zm12.4-3.7c.8-1.2 1.2-3.1 1.4-5.6.1-2.5-.2-4.4-.8-5.6-.7-1.3-1.8-1.9-3.3-2-1.5-.1-2.7.5-3.5 1.7-.8 1.2-1.3 3-1.4 5.5-.2 5 1.2 7.6 4.2 7.7 1.5.1 2.6-.4 3.4-1.7z"/><path d="M138.4 43h-.9c-4-.2-7.1-1.5-9.1-4-2-2.4-2.9-5.9-2.7-10.3.2-4.4 1.4-7.7 3.6-10s5.4-3.3 9.4-3.1c4 .2 7.1 1.5 9 4 2 2.4 2.9 5.9 2.7 10.3-.2 4.4-1.4 7.7-3.6 10-1.9 2-4.8 3.1-8.4 3.1zm-.5-26.4c-3.3 0-5.9 1-7.8 2.8-2 2.1-3.2 5.2-3.3 9.3-.2 4.1.6 7.4 2.5 9.6 1.8 2.2 4.6 3.5 8.3 3.6 3.7.2 6.6-.8 8.6-2.8 2-2.1 3.1-5.2 3.3-9.4.2-4.1-.6-7.4-2.5-9.6-1.8-2.2-4.6-3.4-8.3-3.6-.2.1-.5.1-.8.1zm.2 20.7h-.3c-3.4-.2-4.9-2.9-4.7-8.2.1-2.6.6-4.5 1.5-5.8.9-1.4 2.2-2 3.9-1.9 1.7.1 3 .8 3.7 2.3.7 1.4 1 3.3.9 5.9-.1 2.6-.6 4.5-1.4 5.8-.8 1.2-2 1.9-3.6 1.9zm.2-15c-1.2 0-2.2.5-2.8 1.5-.8 1.1-1.2 2.9-1.3 5.3-.2 4.7 1 7.1 3.7 7.2 1.3.1 2.4-.4 3-1.5.7-1.1 1.2-2.9 1.3-5.3.1-2.4-.2-4.2-.8-5.4-.6-1.1-1.5-1.7-2.9-1.8h-.2z"/><g><path class="st0" d="M158 41.9c-1.3-1.1-2.4-2.6-3-4.7s-1-4.4-.8-7.2c.2-4 1.2-7.2 3.2-9.5 1.9-2.3 4.5-3.3 7.8-3.2 1.9.1 3.6.7 4.9 1.7l.5-10.9c0-1 1.1-1.5 3-1.4l1.4.1c2 .1 2.9.7 2.9 1.7l-1.2 26.7c-.1 1.5-.1 2.6 0 3.4s.1 1.7.2 2.6c.1.4.1.8.1 1.1 0 .5-.7.9-2 1.1-1.3.2-2.5.3-3.5.2-.6 0-1-.3-1.2-.8-.2-.5-.4-1-.4-1.5-.1-.5-.1-.9-.2-1.1-.6 1-1.6 1.9-2.7 2.5-1.2.6-2.5.9-4 .8-2.1.1-3.6-.5-5-1.6zm11.2-6.8l.5-10.9c-1.1-.7-2.2-1-3.4-1.1-3-.1-4.7 2.3-4.9 7.2-.2 4.9 1 7.4 3.6 7.5 1.7.1 3-.8 4.2-2.7z"/><path d="M171.8 44.2h-.6c-1 0-1.4-.6-1.6-1.1-.2-.5-.4-1-.5-1.6-.6.7-1.3 1.2-2.2 1.7-1.3.7-2.7 1-4.2.9-1.9-.1-3.5-.7-4.9-1.9-1.4-1.1-2.5-2.8-3.2-4.9-.7-2.1-1-4.6-.9-7.4.2-4.1 1.3-7.4 3.3-9.8 2-2.4 4.8-3.5 8.2-3.4 1.7.1 3.2.5 4.4 1.3l.5-10c0-.7.4-1.3 1.1-1.6.6-.3 1.4-.4 2.5-.3l1.4.1c1.1 0 1.9.2 2.4.6.6.4 1 1 .9 1.7L177 35.3c-.1 1.5-.1 2.6 0 3.4 0 .8.1 1.6.2 2.6.1.4.1.8.1 1.2-.1 1.2-1.9 1.5-2.5 1.6-1.1 0-2.1.1-3 .1zm-2.1-5.5l.2 1.5c0 .2.1.6.2 1.1.1.5.2 1 .4 1.4.1.2.3.4.8.5 1 0 2.1 0 3.4-.2 1.3-.2 1.6-.5 1.6-.6 0-.3 0-.6-.1-1-.1-1-.2-1.9-.2-2.7v-3.5l1.2-26.7c0-.3-.1-.6-.4-.8-.4-.2-1.1-.4-2-.4l-1.4-.1c-.9 0-1.6 0-2 .2-.3.2-.5.4-.5.7l-.5 11.9-.8-.6c-1.3-1-2.8-1.6-4.6-1.6-3.1-.1-5.5.8-7.4 3-1.8 2.2-2.9 5.3-3 9.2-.1 2.7.2 5.1.8 7 .7 1.9 1.6 3.4 2.9 4.4 1.2 1 2.7 1.6 4.4 1.6 1.4.1 2.6-.2 3.7-.8 1.1-.6 2-1.4 2.5-2.3l.8-1.2zm-4.4-.4h-.2c-3-.1-4.3-2.8-4.1-8 .1-2.6.6-4.5 1.5-5.8.9-1.4 2.2-2 3.9-1.9 1.3.1 2.5.4 3.6 1.2l.2.2-.5 11.3-.1.1c-1.2 1.9-2.7 2.9-4.3 2.9zm.8-14.7c-1.2 0-2.2.5-2.8 1.5-.8 1.1-1.2 2.9-1.3 5.3-.3 6.8 2.3 6.9 3.2 7 1.4.1 2.5-.7 3.6-2.4l.5-10.5c-.9-.5-1.9-.8-2.9-.9h-.3z"/></g><g><path d="M21.1 84.9c-2.8-2.7-4.5-7-4.9-13-.8-11.6 4.2-17.8 15.1-18.6 1.6-.1 3.3-.1 5 .2 1.7.2 3.1.6 4.1 1.1.9.4 1.3.9 1.4 1.5 0 .5-.1 1.1-.4 1.8-.3.8-.7 1.4-1.2 2-.5.6-.9.9-1.3 1-.1 0-.5-.1-1.2-.4s-1.6-.4-2.5-.6c-1-.2-2.2-.2-3.5-.1-2.9.2-4.9 1.3-6.2 3.2-1.3 1.9-1.8 4.7-1.5 8.4.5 7.4 3.6 10.9 9.2 10.5 1.5-.1 2.7-.3 3.8-.7 1.1-.4 2.1-.8 3-1.3.5-.3.9-.5 1-.5.5 0 1 .2 1.5.7.5.5.9 1.1 1.2 1.8.3.7.5 1.2.5 1.5.1.8-.5 1.6-1.5 2.4-1 .7-2.4 1.3-4.2 1.7-1.7.4-3.4.7-4.9.8-5.5.4-9.6-.7-12.5-3.4z"/><path class="st0" d="M48.4 83.8c-2.2-2.1-3.4-5.3-3.7-9.6s.5-7.6 2.3-10c1.9-2.4 4.7-3.7 8.6-4 3.9-.3 6.9.6 9.1 2.7 2.2 2.1 3.4 5.3 3.7 9.6.3 4.3-.5 7.6-2.3 10-1.8 2.4-4.7 3.7-8.6 4-3.9.4-6.9-.5-9.1-2.7zm12-5c.6-1.3.9-3.2.7-5.7-.2-2.5-.7-4.3-1.5-5.5-.8-1.2-2-1.7-3.5-1.6-1.5.1-2.6.8-3.3 2.1-.7 1.3-.9 3.2-.7 5.7.4 5 2 7.4 5.1 7.2 1.4-.2 2.5-.9 3.2-2.2z"/><path d="M56.2 87.1c-3.4 0-6.1-1-8.1-3-2.3-2.2-3.6-5.5-3.9-9.9-.3-4.4.5-7.9 2.4-10.3 1.9-2.5 5-3.9 9-4.2 4-.3 7.2.7 9.4 2.9s3.5 5.5 3.9 9.9c.3 4.4-.5 7.9-2.4 10.4s-4.9 3.9-8.9 4.2h-1.4zm.7-26.4h-1.3c-3.7.3-6.5 1.5-8.2 3.8-1.8 2.3-2.5 5.5-2.2 9.6.3 4.1 1.5 7.2 3.6 9.3 2.1 2 5 2.9 8.7 2.6 3.7-.3 6.5-1.6 8.2-3.8 1.8-2.3 2.5-5.6 2.2-9.7-.3-4.1-1.5-7.2-3.6-9.2-1.7-1.7-4.2-2.6-7.4-2.6zm-.2 20.7c-3.1 0-4.8-2.6-5.2-7.6-.2-2.6.1-4.5.8-5.9.7-1.5 2-2.3 3.7-2.4 1.7-.1 3.1.5 4 1.8.9 1.3 1.4 3.2 1.6 5.7.2 2.6-.1 4.5-.8 5.9-.7 1.5-2 2.3-3.7 2.4-.1.1-.2.1-.4.1zm-.3-14.9h-.3c-1.4.1-2.3.7-2.9 1.8-.6 1.2-.8 3-.7 5.4.3 4.7 1.8 6.9 4.5 6.7 1.4-.1 2.3-.7 2.8-1.8.6-1.2.8-3 .7-5.4-.2-2.4-.6-4.1-1.4-5.2-.6-1.1-1.5-1.5-2.7-1.5z"/><path class="st0" d="M74.3 83.5L73.2 68c-.1-1.4-.2-2.5-.4-3.3-.1-.8-.3-1.6-.5-2.5-.1-.4-.2-.8-.2-1 0-.5.6-1 1.9-1.3 1.3-.4 2.5-.6 3.5-.6.6 0 1 .1 1.3.6s.5.9.6 1.4c.2.5.3.9.3 1.1.7-1.1 1.7-2.1 2.9-2.9 1.3-.8 2.6-1.3 4.1-1.4 2.4-.2 4.3.3 5.6 1.5 1.3 1.2 2 3.2 2.2 5.9L95.6 82c.1 1-.9 1.6-2.8 1.8l-1.4.1c-2 .1-3-.3-3-1.4L87.3 67c-.1-1-.4-1.8-.8-2.2-.5-.5-1.3-.7-2.3-.6-.9.1-1.6.4-2.3 1-.6.6-1.1 1.3-1.4 2.1l1 15.7c.1 1-.9 1.6-2.8 1.8l-1.4.1c-1.9.1-2.9-.3-3-1.4z"/><path d="M76.7 85.4c-.7 0-1.3-.1-1.8-.3-.7-.3-1.1-.8-1.1-1.5l-1.1-15.5c-.1-1.4-.2-2.5-.4-3.2-.1-.8-.3-1.6-.5-2.5-.1-.5-.2-.8-.2-1.1-.1-1.2 1.7-1.7 2.3-1.8 1.3-.4 2.5-.6 3.6-.7 1-.1 1.5.4 1.7.8.3.5.5 1 .7 1.5v.1c.7-.8 1.5-1.5 2.5-2.2 1.3-.9 2.8-1.3 4.3-1.4 2.6-.2 4.6.4 5.9 1.7 1.4 1.3 2.1 3.4 2.3 6.2L96.1 82c.1.7-.3 1.3-.9 1.7-.5.3-1.3.5-2.4.6l-1.4.1c-2.8.2-3.5-.9-3.6-1.8l-1.1-15.5c-.1-.9-.3-1.5-.7-1.9-.4-.4-1-.5-1.9-.5-.8.1-1.4.3-1.9.9-.5.5-1 1.2-1.3 1.8L82 83c.1.9-.4 2.1-3.3 2.3l-1.4.1h-.6zm-1.9-1.9c0 .3.2.5.5.7.4.2 1.1.3 2 .2l1.4-.1c1.6-.1 2.4-.5 2.4-1.2L80 67.3v-.1c.4-.8.9-1.6 1.6-2.2.7-.7 1.6-1.1 2.6-1.2 1.2-.1 2.1.2 2.7.7.6.6.9 1.4 1 2.5L89 82.5c.1.7.9 1 2.5.9l1.4-.1c.9-.1 1.5-.2 1.9-.5.3-.2.4-.4.4-.8L94 65.4c-.2-2.6-.9-4.4-2-5.5-1.2-1.1-2.9-1.6-5.2-1.4-1.4.1-2.7.5-3.8 1.3-1.2.8-2.1 1.7-2.8 2.7l-.6 1-.3-1.1c0-.2-.1-.5-.3-1-.1-.5-.3-.9-.6-1.3-.1-.2-.3-.4-.8-.3-1 .1-2.1.3-3.4.6-1.3.3-1.5.7-1.5.8 0 .1.1.4.2.9.2 1 .4 1.8.5 2.6.1.8.3 1.9.4 3.3l1 15.5z"/><path class="st0" d="M106.8 81.8l-9.4-22.2c-.2-.4-.2-.7-.3-.9-.1-.7.9-1.1 2.9-1.3l1.6-.1c1.6-.1 2.5.2 2.8.8l3.5 8.8c.2.5.6 1.8 1.2 3.7l.6 2.1h.2c.4-2.9.7-4.9.9-6l2.2-9.2c.2-.7 1.1-1.1 2.7-1.2l1.2-.1c2-.1 3 .2 3 .9 0 .2 0 .5-.1.9l-6.2 23.3c-.2.7-1.1 1.1-2.7 1.2l-1.6.1c-1.2.1-2.1-.2-2.5-.8z"/><path d="M109 83.1c-1.4 0-2.3-.4-2.6-1.1L97 59.7c-.2-.7-.3-.9-.3-1 0-.4.1-1 1-1.4.5-.2 1.3-.4 2.4-.5l1.6-.1c1.9-.1 2.9.2 3.3 1.1l3.5 8.8c.2.5.6 1.8 1.2 3.8l.1.2c.3-1.9.5-3.3.7-4.2l2.2-9.3c.2-.9 1.3-1.5 3.1-1.6l1.2-.1c.8-.1 3.4-.2 3.5 1.3 0 .3 0 .6-.1 1l-6.2 23.4c-.2.9-1.3 1.5-3.1 1.6l-1.6.1c0 .3-.3.3-.5.3zm-1.7-1.5c.2.4 1 .6 2.3.5l1.6-.1c1.3-.1 2.1-.4 2.2-.8l6.2-23.3c.1-.4.1-.6.1-.7 0-.2-.6-.5-2.5-.4l-1.2.1c-1.3.1-2.1.4-2.2.8l-2.2 9.2c-.2 1.1-.6 3.1-.9 6l-.1.4-1 .1-.7-2.5c-.6-2-1-3.2-1.2-3.7l-3.5-8.8c-.2-.4-1-.6-2.3-.5l-1.6.1c-.9.1-1.6.2-2.1.4-.3.1-.4.2-.4.4 0 0 0 .2.2.7l9.3 22.1z"/><path class="st0" d="M127.3 78.2c-2.3-2.1-3.5-5.3-3.8-9.3-.3-4.6.5-8 2.4-10.3 1.9-2.3 4.8-3.6 8.5-3.8 3.6-.3 6.4.7 8.2 3 1.9 2.2 2.9 5.2 3.2 8.9 0 .4-.3 1-.9 1.8-.6.8-1.1 1.2-1.4 1.3l-12.5.9c.3 1.8.9 3.1 1.9 3.8 1 .7 2.3 1 4 .9.9-.1 1.7-.2 2.5-.5.7-.3 1.5-.6 2.3-1 .5-.3.9-.5 1-.5.3 0 .7.2 1.2.6.4.4.8 1 1.1 1.5.3.6.5 1 .5 1.4.1.8-.4 1.4-1.4 2-1 .6-2.2 1.1-3.5 1.5-1.4.4-2.6.6-3.6.7-4.2.1-7.4-.8-9.7-2.9zm11.4-13.1c-.1-1.5-.5-2.7-1.1-3.5-.7-.9-1.6-1.2-2.7-1.2-2.4.2-3.8 1.9-4 5.2l7.8-.5z"/><path d="M135.6 81.5c-3.7 0-6.6-1-8.6-3-2.3-2.2-3.7-5.5-4-9.7-.3-4.7.5-8.3 2.6-10.7 2-2.4 5-3.7 8.8-4 3.8-.3 6.7.8 8.7 3.1 1.9 2.3 3.1 5.4 3.3 9.2 0 .5-.3 1.2-1 2.1-.7 1-1.3 1.4-1.8 1.5l-11.9.8c.3 1.4.9 2.4 1.6 3 .9.6 2.1.9 3.7.8.9-.1 1.6-.2 2.3-.5.7-.3 1.5-.6 2.2-1 .7-.4 1-.5 1.2-.5.5 0 1 .2 1.5.8.5.5.9 1 1.2 1.7.4.7.5 1.2.6 1.6.1.9-.5 1.8-1.6 2.5-1 .6-2.2 1.1-3.7 1.5-1.4.4-2.7.6-3.7.7-.4.1-.9.1-1.4.1zm-.1-26.4h-1.1c-3.6.3-6.3 1.5-8.1 3.7-1.9 2.2-2.6 5.5-2.3 10 .3 3.9 1.5 7 3.7 9 2.1 2 5.3 2.9 9.5 2.6 1-.1 2.2-.3 3.5-.6 1.3-.3 2.5-.8 3.4-1.4.8-.5 1.2-1 1.1-1.6 0-.2-.1-.5-.5-1.2-.3-.5-.7-1-1.1-1.4-.5-.5-.7-.5-.8-.5 0 0-.2 0-.8.4-.8.4-1.6.7-2.4 1-.8.3-1.7.5-2.6.5-1.8.1-3.3-.2-4.4-1-1.1-.8-1.8-2.2-2.1-4.2l-.1-.5 13-.9s.3-.1 1-1.1.8-1.4.8-1.5c-.3-3.6-1.3-6.5-3.1-8.6-1.4-1.8-3.7-2.7-6.6-2.7zm-5.3 11.1l.1-.6c.3-3.6 1.8-5.5 4.5-5.7 1.3-.1 2.4.4 3.2 1.4.7.9 1.1 2.2 1.2 3.8v.5l-9 .6zm4.9-5.3h-.3c-2 .1-3.2 1.5-3.5 4.2l6.8-.5c-.1-1.2-.5-2.1-1-2.8-.5-.6-1.1-.9-2-.9z"/><path class="st0" d="M151.6 78l-1.1-15.5c-.1-1.4-.2-2.5-.4-3.3-.1-.8-.3-1.6-.5-2.5-.1-.4-.2-.8-.2-1 0-.5.6-1 1.9-1.3 1.3-.4 2.5-.6 3.5-.6.6 0 1 .1 1.3.6.3.4.5.9.6 1.4.2.5.3.9.3 1.1.5-1.2 1.2-2.1 2-2.9.8-.7 1.8-1.1 3.1-1.2 1-.1 1.8.1 2.2.7.4.5.7 1.1.7 1.8s0 1.5-.3 2.6c-.2 1-.5 1.6-1 1.6-.2 0-.5 0-1-.1s-.9-.1-1.3-.1c-.9.1-1.6.4-2.3.9-.6.6-1.1 1.2-1.5 1.8l1.1 15.7c.1 1-.9 1.6-2.8 1.8l-1.4.1c-1.8-.1-2.9-.5-2.9-1.6z"/><path d="M154 79.9c-.7 0-1.3-.1-1.8-.3-.7-.3-1.1-.8-1.1-1.5L150 62.6c-.1-1.4-.2-2.5-.4-3.2-.1-.8-.3-1.6-.5-2.5-.1-.5-.2-.8-.2-1.1-.1-1.2 1.7-1.7 2.3-1.8 1.3-.4 2.5-.6 3.6-.7 1-.1 1.5.4 1.7.8.3.4.5.9.6 1.4.4-.7.9-1.4 1.5-1.9.9-.8 2-1.3 3.4-1.4 1.2-.1 2.1.2 2.6.8.5.6.8 1.3.9 2.1.1.7 0 1.6-.3 2.7-.1.5-.4 1.9-1.4 2-.2 0-.6 0-1.2-.1-.5-.1-.8-.1-1.2-.1-.8.1-1.4.3-2 .8-.5.5-1 1-1.3 1.5l1.1 15.5c.1.9-.4 2.1-3.3 2.3l-1.4.1c-.1.1-.3.1-.5.1zm-1.9-1.9c0 .3.2.5.5.7.4.2 1.1.3 2 .2l1.4-.1c1.6-.1 2.4-.5 2.4-1.2l-1.1-15.8.1-.1c.4-.7.9-1.3 1.6-1.9.7-.6 1.6-1 2.6-1 .4 0 .9 0 1.4.1.6.1.8.1.9.1 0 0 .3-.1.5-1.2.2-1 .3-1.8.2-2.5 0-.6-.2-1.1-.6-1.5-.3-.4-.9-.5-1.8-.5-1.1.1-2.1.4-2.8 1.1-.7.7-1.4 1.6-1.9 2.7l-.6 1.3-.3-1.4c0-.2-.1-.5-.3-1-.1-.5-.3-.9-.6-1.3-.1-.2-.3-.4-.8-.3-1 .1-2.1.3-3.4.6-1.3.3-1.5.7-1.5.8 0 .1.1.4.2.9.2 1 .4 1.8.5 2.6.1.8.3 1.9.4 3.3l1 15.4z"/><g><path class="st0" d="M171.5 77.6c-1.7-.5-2.6-1.2-2.7-2.2 0-.7.2-1.5.8-2.4.6-1 1.1-1.5 1.6-1.5.3 0 .6.1 1.1.3.7.2 1.3.4 1.9.6.6.1 1.3.2 2 .1.9-.1 1.6-.3 2.1-.7.5-.4.7-.9.6-1.6 0-.6-.3-1-.6-1.4-.4-.3-.8-.6-1.2-.7-.4-.2-1.3-.4-2.6-.8-1.7-.5-3.1-1.3-4.2-2.3-1.1-1-1.7-2.5-1.9-4.7-.2-2.5.5-4.5 2-6.1 1.5-1.5 3.6-2.4 6.3-2.6 1.7-.1 3.4 0 5 .4s2.5 1 2.5 1.9c0 .6-.1 1.4-.6 2.4-.4 1-.8 1.5-1.3 1.6-.1 0-.6-.1-1.5-.4-.8-.3-1.8-.4-2.8-.3-1.7.1-2.5.8-2.5 1.9.1.7.4 1.3 1 1.6.6.4 1.5.7 2.8 1.1.2.1.5.2 1 .3.4.1.8.3 1.1.4 1.3.5 2.4 1.3 3.3 2.3.8 1 1.3 2.4 1.4 4.1.2 2.5-.5 4.6-2.1 6.3-1.6 1.6-3.9 2.6-6.9 2.8-2 .2-3.8.1-5.6-.4z"/><path d="M175.8 78.6c-1.6 0-3.1-.2-4.5-.6-2-.6-3-1.5-3.1-2.7-.1-.8.2-1.6.8-2.7.7-1.2 1.3-1.7 2-1.8.3 0 .8.1 1.4.4.6.2 1.3.4 1.8.5.5.1 1.2.2 1.8.1.8-.1 1.4-.2 1.8-.6.3-.3.5-.7.4-1.2 0-.5-.2-.8-.5-1-.3-.3-.7-.5-1.1-.7-.4-.2-1.3-.4-2.5-.8-1.8-.6-3.3-1.3-4.4-2.4-1.2-1.1-1.9-2.7-2-5-.2-2.6.5-4.8 2.1-6.4 1.6-1.6 3.8-2.5 6.7-2.7 1.8-.1 3.5 0 5.2.4 1.8.4 2.8 1.2 2.9 2.4.1.7-.1 1.6-.6 2.7-.5 1.2-1 1.8-1.7 1.9-.2 0-.4 0-1.6-.4-.8-.3-1.7-.4-2.6-.3-.8.1-1.3.2-1.6.5-.3.2-.4.5-.4.9 0 .6.3.9.7 1.2.6.3 1.5.7 2.7 1.1.2.1.5.2.9.3.5.1.9.3 1.2.4 1.4.5 2.6 1.4 3.5 2.4.9 1.1 1.4 2.6 1.6 4.4.2 2.7-.6 4.9-2.2 6.6-1.7 1.7-4.1 2.7-7.2 2.9-.6.2-1 .2-1.5.2zm-4.6-6.7c-.1 0-.5.1-1.2 1.3-.5.9-.7 1.6-.7 2.2.1.7.8 1.3 2.4 1.8 1.7.5 3.5.7 5.5.5 2.9-.2 5.1-1.1 6.6-2.6s2.1-3.5 2-5.9c-.1-1.6-.6-2.9-1.3-3.9-.8-.9-1.8-1.7-3.1-2.2-.3-.1-.7-.3-1.1-.4-.5-.1-.8-.3-1-.3-1.3-.4-2.2-.8-2.8-1.2-.7-.4-1.2-1.1-1.2-2-.1-.7.2-1.3.8-1.8.5-.4 1.2-.6 2.2-.7 1.1-.1 2.1 0 3 .3 1 .3 1.3.4 1.3.4s.3-.1.8-1.3c.4-.9.6-1.7.5-2.2 0-.7-.8-1.2-2.1-1.5-1.6-.4-3.2-.5-4.9-.4-2.6.2-4.6 1-6 2.4-1.4 1.4-2 3.3-1.8 5.7.1 2 .7 3.5 1.7 4.3 1 .9 2.4 1.6 4 2.2 1.3.4 2.1.6 2.6.8.5.2 1 .5 1.4.8.5.4.8 1 .8 1.7.1.8-.2 1.5-.8 2-.5.5-1.3.7-2.4.8-.8.1-1.5 0-2.2-.1-.6-.1-1.3-.3-2-.6-.7-.1-.9-.1-1-.1z"/></g><g><path class="st0" d="M188.4 46.1l-.2-3.5c-.1-1.2 1.1-1.9 3.5-2.1 2.4-.2 3.7.3 3.7 1.6l.2 3.5c.1 1.2-1.1 1.9-3.5 2.1-2.4.2-3.6-.3-3.7-1.6zm2.1 29.2l-1.6-22.6c-.1-1 .9-1.6 2.8-1.8l1.4-.1c2-.1 3 .3 3 1.4l1.6 22.6c.1 1-.9 1.6-2.8 1.8l-1.4.1c-1.9.1-2.9-.4-3-1.4z"/><path d="M192.9 77.2c-2.3 0-2.9-1-2.9-1.8l-1.6-22.6c-.1-.7.3-1.3.9-1.7.5-.3 1.3-.5 2.4-.6l1.4-.1c2.8-.2 3.5.9 3.6 1.8l1.6 22.6c.1.9-.4 2.1-3.3 2.3l-1.4.1c-.3-.1-.5 0-.7 0zm-1.9-2c.1.7.9 1 2.5.9l1.4-.1c1.6-.1 2.4-.5 2.4-1.2l-1.6-22.6c-.1-.7-.9-1-2.5-.9l-1.4.1c-.9.1-1.5.2-1.9.5-.3.2-.4.4-.4.8l1.5 22.5zm.3-26.9c-.9 0-1.6-.1-2.1-.3-.8-.3-1.2-.9-1.3-1.8l-.2-3.5c0-.6.1-1.3 1.1-1.9.7-.4 1.6-.6 2.9-.7 2.7-.2 4.2.5 4.3 2l.2 3.5c.1 1.6-1.2 2.5-3.9 2.6-.4.1-.7.1-1 .1zm1.2-7.2h-.8c-1.1.1-1.9.3-2.5.6-.4.2-.6.5-.6 1l.2 3.5c0 .4.2.7.7.9.5.2 1.4.3 2.5.2 2.1-.1 3.1-.7 3-1.6l-.2-3.5c0-.8-.8-1.1-2.3-1.1z"/></g><g><path class="st0" d="M205.5 72.7c-2.2-2.1-3.4-5.3-3.7-9.6-.3-4.3.5-7.6 2.3-10 1.9-2.4 4.7-3.7 8.6-4s6.9.6 9.1 2.7c2.2 2.1 3.4 5.3 3.7 9.6.3 4.3-.5 7.6-2.3 10-1.8 2.4-4.7 3.7-8.6 4-3.9.3-6.9-.6-9.1-2.7zm12-5.1c.6-1.3.9-3.2.7-5.7-.2-2.5-.7-4.3-1.5-5.5-.8-1.2-2-1.7-3.5-1.6-1.5.1-2.6.8-3.3 2.1-.7 1.3-.9 3.2-.7 5.7.4 5 2 7.4 5.1 7.2 1.4-.2 2.5-.9 3.2-2.2z"/><path d="M213.3 76c-3.4 0-6.1-1-8.1-3-2.3-2.2-3.6-5.5-3.9-9.9-.3-4.4.5-7.9 2.4-10.3 1.9-2.5 5-3.9 9-4.2 4-.3 7.2.7 9.4 2.9s3.5 5.5 3.9 9.9c.3 4.4-.5 7.9-2.4 10.4s-4.9 3.9-8.9 4.2h-1.4zm.7-26.5h-1.3c-3.7.3-6.5 1.5-8.2 3.8-1.8 2.3-2.5 5.5-2.2 9.6.3 4.1 1.5 7.2 3.6 9.3 2.1 2 5 2.9 8.7 2.6 3.7-.3 6.5-1.6 8.2-3.8 1.8-2.3 2.5-5.6 2.2-9.7-.3-4.1-1.5-7.2-3.6-9.2-1.8-1.7-4.3-2.6-7.4-2.6zm-.2 20.7c-1.5 0-2.7-.6-3.6-1.9-.9-1.3-1.4-3.2-1.6-5.8-.2-2.6.1-4.5.8-5.9.7-1.5 2-2.3 3.7-2.4 1.7-.1 3.1.5 4 1.8.9 1.3 1.4 3.2 1.6 5.7.2 2.6-.1 4.6-.8 5.9-.7 1.5-2 2.3-3.7 2.4-.1.2-.2.2-.4.2zm-.3-14.9h-.3c-1.4.1-2.3.7-2.9 1.8-.6 1.2-.8 3-.7 5.4.2 2.4.7 4.2 1.4 5.3.7 1 1.8 1.5 3.1 1.4 1.4-.1 2.3-.7 2.8-1.8.6-1.2.8-3 .7-5.4-.2-2.4-.6-4.1-1.4-5.2-.6-1.1-1.5-1.5-2.7-1.5z"/></g><g><path class="st0" d="M231.4 72.4l-1.1-15.5c-.1-1.4-.2-2.5-.4-3.3-.1-.8-.3-1.6-.5-2.5-.1-.4-.2-.8-.2-1 0-.5.6-1 1.9-1.3 1.3-.4 2.5-.6 3.5-.6.6 0 1 .1 1.3.6.3.4.5.9.6 1.4.2.5.2.9.3 1.1.7-1.1 1.7-2.1 2.9-2.9 1.3-.8 2.6-1.3 4.1-1.4 2.4-.2 4.3.3 5.6 1.5 1.3 1.2 2 3.2 2.2 5.9l1.2 16.6c.1 1-.9 1.6-2.8 1.8l-1.4.1c-2 .1-3-.3-3-1.4L244.5 56c-.1-1-.4-1.8-.8-2.2-.5-.5-1.3-.7-2.3-.6-.9.1-1.6.4-2.3 1-.6.6-1.1 1.3-1.4 2.1l1.1 15.7c.1 1-.9 1.6-2.8 1.8l-1.4.1c-2.1 0-3.1-.5-3.2-1.5z"/><path d="M233.8 74.2c-2.3 0-2.9-1-2.9-1.8l-1.1-15.5c-.1-1.4-.2-2.5-.4-3.2-.1-.8-.3-1.6-.5-2.5-.1-.5-.2-.8-.2-1.1-.1-1.2 1.7-1.7 2.3-1.8 1.3-.4 2.5-.6 3.6-.7 1-.1 1.5.4 1.7.8.3.5.5 1 .7 1.5v.1c.7-.8 1.5-1.5 2.5-2.2 1.3-.9 2.8-1.3 4.3-1.4 2.6-.2 4.6.4 5.9 1.7 1.4 1.3 2.1 3.4 2.3 6.2l1.2 16.6c.1.9-.4 2.1-3.3 2.3l-1.4.1c-1.1.1-1.9 0-2.5-.3-.7-.3-1.1-.8-1.1-1.5L243.8 56c-.1-.9-.3-1.5-.7-1.9-.4-.4-1-.5-1.9-.5-.8.1-1.4.3-1.9.9-.6.5-1 1.2-1.3 1.8l1.1 15.6c.1.7-.3 1.3-.9 1.7-.5.3-1.3.5-2.4.6l-1.4.1c-.2-.1-.4-.1-.6-.1zm-1.9-1.9c.1.7.9 1 2.5.9l1.4-.1c.9-.1 1.5-.2 1.9-.5.3-.2.4-.4.4-.8L237 56.1V56c.4-.8.9-1.6 1.6-2.3.7-.7 1.6-1.1 2.6-1.2 1.2-.1 2.1.2 2.7.7.6.6.9 1.4 1 2.6l1.1 15.5c0 .3.2.5.5.7.4.2 1.1.3 2 .2l1.4-.1c1.6-.1 2.4-.5 2.4-1.2L251 54.3c-.2-2.6-.9-4.4-2-5.5-1.2-1.1-2.9-1.6-5.2-1.4-1.4.1-2.7.5-3.8 1.3-1.2.8-2.1 1.7-2.8 2.7l-.6 1-.3-1.1c0-.2-.1-.5-.3-1-.1-.5-.3-.9-.6-1.3-.1-.2-.3-.4-.8-.3-1 .1-2.1.3-3.4.6-1.3.3-1.5.7-1.5.8 0 .1.1.4.2.9.2 1 .4 1.8.5 2.6.1.8.3 1.9.4 3.3l1.1 15.4z"/></g></g><g><path d="M66.5 14.2c-3.9 0-7.1-3.2-7.1-7.1S62.6 0 66.5 0s7.1 3.2 7.1 7.1-3.2 7.1-7.1 7.1zm0-11.2c-2.3 0-4.1 1.8-4.1 4.1s1.8 4.1 4.1 4.1 4.1-1.8 4.1-4.1S68.8 3 66.5 3z"/></g><g><path d="M7.1 65.4c-3.9 0-7.1-3.2-7.1-7.1s3.2-7.1 7.1-7.1 7.1 3.2 7.1 7.1-3.1 7.1-7.1 7.1zm0-11.2C4.8 54.2 3 56 3 58.3s1.8 4.1 4.1 4.1 4.1-1.8 4.1-4.1-1.8-4.1-4.1-4.1z"/></g><g><path d="M9.3 41.1l-1-.2C12.1 21.6 28.5 7.4 48.1 6.3l.1 1C29 8.4 13 22.3 9.3 41.1z"/><path d="M11.4 40.6l-3.1 3.9-1.8-4.7zM46.6 11.9L55.3 7l-8.6-5.1z"/></g></svg>