<?xml version="1.0" encoding="utf-8"?>
<svg version="1.1" id="Layer_1" xmlns="http://www.w3.org/2000/svg" xmlns:xlink="http://www.w3.org/1999/xlink" x="0px" y="0px"
	 viewBox="0 0 253.2 88.4" style="enable-background:new 0 0 253.2 88.4;" xml:space="preserve">
<style type="text/css">
	.st0{fill:#FFFFFF;}
</style>
<g>
	<g>
		<g>
			<path d="M75.9,37.8L77.3,7c0-0.7,0.2-1.2,0.5-1.5s0.8-0.4,1.5-0.4l16.1,0.7c0.5,0,0.9,0.2,1.1,0.6c0.2,0.4,0.3,1,0.3,1.9
				l-0.1,1.5c0,0.8-0.2,1.5-0.4,1.8c-0.2,0.4-0.6,0.6-1.2,0.5l-10.5-0.5l-0.3,7.1l10.2,0.5c0.5,0,0.9,0.2,1.1,0.6
				c0.2,0.4,0.3,1,0.3,1.9l-0.1,1.5c0,0.8-0.2,1.5-0.4,1.8c-0.2,0.4-0.6,0.6-1.2,0.5L84,25.3l-0.6,12.8c0,1-1,1.5-3,1.4l-1.7-0.1
				C76.8,39.4,75.9,38.8,75.9,37.8z"/>
		</g>
		<g>
			<g>
				<path class="st0" d="M101,37.4c-1.9-2.4-2.8-5.7-2.6-10c0.2-4.3,1.4-7.5,3.5-9.7s5.1-3.2,9-3c3.9,0.2,6.8,1.4,8.7,3.8
					c1.9,2.3,2.8,5.7,2.6,9.9c-0.2,4.3-1.3,7.5-3.5,9.7c-2.1,2.2-5.1,3.2-9,3C105.8,41,102.9,39.8,101,37.4z M113.5,33.8
					c0.8-1.2,1.2-3.1,1.4-5.6s-0.2-4.4-0.8-5.6c-0.7-1.3-1.8-1.9-3.3-2c-1.5-0.1-2.7,0.5-3.5,1.7c-0.8,1.2-1.3,3-1.4,5.5
					c-0.2,5,1.2,7.6,4.2,7.7C111.5,35.6,112.7,35,113.5,33.8z"/>
				<path d="M110.6,41.7c-0.3,0-0.6,0-0.9,0c-4-0.2-7.1-1.5-9.1-4l0,0c-2-2.4-2.9-5.9-2.7-10.3c0.2-4.4,1.4-7.7,3.6-10
					c2.2-2.3,5.4-3.3,9.4-3.1c4,0.2,7.1,1.5,9,4c2,2.4,2.9,5.9,2.7,10.3c-0.2,4.4-1.4,7.7-3.6,10C117,40.7,114.2,41.7,110.6,41.7z
					 M110.1,15.3c-3.3,0-5.9,1-7.8,2.8c-2,2.1-3.2,5.2-3.3,9.3c-0.2,4.1,0.6,7.4,2.5,9.6l0,0c1.8,2.2,4.6,3.5,8.3,3.6
					c3.7,0.2,6.6-0.8,8.6-2.8c2-2.1,3.1-5.2,3.3-9.4c0.2-4.1-0.6-7.4-2.5-9.6c-1.8-2.2-4.6-3.4-8.3-3.6
					C110.6,15.3,110.3,15.3,110.1,15.3z M110.2,36c-0.1,0-0.2,0-0.3,0c-1.7-0.1-3-0.8-3.7-2.3c-0.8-1.4-1.1-3.3-0.9-5.9
					c0.1-2.6,0.6-4.5,1.5-5.8c0.9-1.4,2.2-2,4-1.9c1.7,0.1,3,0.8,3.7,2.3c0.7,1.4,1,3.3,0.9,5.9c-0.1,2.6-0.6,4.5-1.4,5.8
					C113,35.3,111.8,36,110.2,36z M110.4,21c-1.2,0-2.2,0.5-2.8,1.5c-0.8,1.1-1.2,2.9-1.3,5.3c-0.1,2.4,0.2,4.2,0.8,5.4
					c0.6,1.1,1.6,1.7,2.9,1.8c1.3,0.1,2.4-0.4,3-1.5l0,0c0.7-1.1,1.2-2.9,1.3-5.3c0.1-2.4-0.2-4.2-0.8-5.4c-0.6-1.1-1.5-1.7-2.9-1.8
					C110.6,21.1,110.5,21,110.4,21z"/>
			</g>
		</g>
		<g>
			<g>
				<path class="st0" d="M128.9,38.7c-1.9-2.4-2.8-5.7-2.6-10c0.2-4.3,1.4-7.5,3.5-9.7c2.1-2.2,5.1-3.2,9-3c3.9,0.2,6.8,1.4,8.7,3.8
					c1.9,2.3,2.8,5.7,2.6,9.9c-0.2,4.3-1.3,7.5-3.5,9.7c-2.1,2.2-5.1,3.2-9,3C133.7,42.3,130.8,41,128.9,38.7z M141.3,35
					c0.8-1.2,1.2-3.1,1.4-5.6c0.1-2.5-0.2-4.4-0.8-5.6c-0.7-1.3-1.8-1.9-3.3-2c-1.5-0.1-2.7,0.5-3.5,1.7c-0.8,1.2-1.3,3-1.4,5.5
					c-0.2,5,1.2,7.6,4.2,7.7C139.4,36.8,140.5,36.3,141.3,35z"/>
				<path d="M138.4,43c-0.3,0-0.6,0-0.9,0c-4-0.2-7.1-1.5-9.1-4c-2-2.4-2.9-5.9-2.7-10.3c0.2-4.4,1.4-7.7,3.6-10
					c2.2-2.3,5.4-3.3,9.4-3.1c4,0.2,7.1,1.5,9,4c2,2.4,2.9,5.9,2.7,10.3c-0.2,4.4-1.4,7.7-3.6,10C144.9,41.9,142,43,138.4,43z
					 M137.9,16.6c-3.3,0-5.9,1-7.8,2.8c-2,2.1-3.2,5.2-3.3,9.3c-0.2,4.1,0.6,7.4,2.5,9.6h0c1.8,2.2,4.6,3.5,8.3,3.6
					c3.7,0.2,6.6-0.8,8.6-2.8c2-2.1,3.1-5.2,3.3-9.4c0.2-4.1-0.6-7.4-2.5-9.6c-1.8-2.2-4.6-3.4-8.3-3.6
					C138.5,16.6,138.2,16.6,137.9,16.6z M138.1,37.3c-0.1,0-0.2,0-0.3,0c-3.4-0.2-4.9-2.9-4.7-8.2c0.1-2.6,0.6-4.5,1.5-5.8
					c0.9-1.4,2.2-2,3.9-1.9c1.7,0.1,3,0.8,3.7,2.3c0.7,1.4,1,3.3,0.9,5.9c-0.1,2.6-0.6,4.5-1.4,5.8l0,0
					C140.9,36.6,139.7,37.3,138.1,37.3z M138.3,22.3c-1.2,0-2.2,0.5-2.8,1.5c-0.8,1.1-1.2,2.9-1.3,5.3c-0.2,4.7,1,7.1,3.7,7.2
					c1.3,0.1,2.4-0.4,3-1.5l0,0c0.7-1.1,1.2-2.9,1.3-5.3c0.1-2.4-0.2-4.2-0.8-5.4c-0.6-1.1-1.5-1.7-2.9-1.8
					C138.4,22.3,138.3,22.3,138.3,22.3z"/>
			</g>
		</g>
		<g>
			<g>
				<path class="st0" d="M158,41.9c-1.3-1.1-2.4-2.6-3-4.7s-1-4.4-0.8-7.2c0.2-4,1.2-7.2,3.2-9.5c1.9-2.3,4.5-3.3,7.8-3.2
					c1.9,0.1,3.6,0.7,4.9,1.7l0.5-10.9c0-1,1.1-1.5,3-1.4l1.4,0.1c2,0.1,2.9,0.7,2.9,1.7l-1.2,26.7c-0.1,1.5-0.1,2.6,0,3.4
					s0.1,1.7,0.2,2.6c0.1,0.4,0.1,0.8,0.1,1.1c0,0.5-0.7,0.9-2,1.1c-1.3,0.2-2.5,0.3-3.5,0.2c-0.6,0-1-0.3-1.2-0.8
					c-0.2-0.5-0.4-1-0.4-1.5c-0.1-0.5-0.1-0.9-0.2-1.1c-0.6,1-1.6,1.9-2.7,2.5c-1.2,0.6-2.5,0.9-4,0.8C160.9,43.6,159.4,43,158,41.9
					z M169.2,35.1l0.5-10.9c-1.1-0.7-2.2-1-3.4-1.1c-3-0.1-4.7,2.3-4.9,7.2c-0.2,4.9,1,7.4,3.6,7.5C166.7,37.9,168,37,169.2,35.1z"
					/>
				<path d="M171.8,44.2c-0.2,0-0.4,0-0.6,0c-1,0-1.4-0.6-1.6-1.1c-0.2-0.5-0.4-1-0.5-1.6c-0.6,0.7-1.3,1.2-2.2,1.7
					c-1.3,0.7-2.7,1-4.2,0.9c-1.9-0.1-3.5-0.7-4.9-1.9l0,0c-1.4-1.1-2.5-2.8-3.2-4.9c-0.7-2.1-1-4.6-0.9-7.4
					c0.2-4.1,1.3-7.4,3.3-9.8c2-2.4,4.8-3.5,8.2-3.4c1.7,0.1,3.2,0.5,4.4,1.3l0.5-10c0-0.7,0.4-1.3,1.1-1.6c0.6-0.3,1.4-0.4,2.5-0.3
					l1.4,0.1c1.1,0,1.9,0.2,2.4,0.6c0.6,0.4,1,1,0.9,1.7L177,35.3c-0.1,1.5-0.1,2.6,0,3.4c0,0.8,0.1,1.6,0.2,2.6
					c0.1,0.4,0.1,0.8,0.1,1.2c-0.1,1.2-1.9,1.5-2.5,1.6C173.7,44.1,172.7,44.2,171.8,44.2z M169.7,38.7l0.2,1.5
					c0,0.2,0.1,0.6,0.2,1.1c0.1,0.5,0.2,1,0.4,1.4c0.1,0.2,0.3,0.4,0.8,0.5c1,0,2.1,0,3.4-0.2c1.3-0.2,1.6-0.5,1.6-0.6
					c0-0.3,0-0.6-0.1-1c-0.1-1-0.2-1.9-0.2-2.7c0-0.8,0-1.9,0-3.5l1.2-26.7c0-0.3-0.1-0.6-0.4-0.8c-0.4-0.2-1.1-0.4-2-0.4l-1.4-0.1
					c-0.9,0-1.6,0-2,0.2c-0.3,0.2-0.5,0.4-0.5,0.7L170.4,20l-0.8-0.6c-1.3-1-2.8-1.6-4.6-1.6c-3.1-0.1-5.5,0.8-7.4,3
					c-1.8,2.2-2.9,5.3-3,9.2c-0.1,2.7,0.2,5.1,0.8,7c0.7,1.9,1.6,3.4,2.9,4.4h0c1.2,1,2.7,1.6,4.4,1.6c1.4,0.1,2.6-0.2,3.7-0.8
					c1.1-0.6,2-1.4,2.5-2.3L169.7,38.7z M165.3,38.3c-0.1,0-0.1,0-0.2,0c-3-0.1-4.3-2.8-4.1-8c0.1-2.6,0.6-4.5,1.5-5.8
					c0.9-1.4,2.2-2,3.9-1.9c1.3,0.1,2.5,0.4,3.6,1.2l0.2,0.2l-0.5,11.3l-0.1,0.1C168.4,37.3,166.9,38.3,165.3,38.3z M166.1,23.6
					c-1.2,0-2.2,0.5-2.8,1.5c-0.8,1.1-1.2,2.9-1.3,5.3c-0.3,6.8,2.3,6.9,3.2,7c1.4,0.1,2.5-0.7,3.6-2.4l0.5-10.5
					c-0.9-0.5-1.9-0.8-2.9-0.9C166.3,23.6,166.2,23.6,166.1,23.6z"/>
			</g>
		</g>
	</g>
	<g>
		<g>
			<g>
				<path d="M21.1,84.9c-2.8-2.7-4.5-7-4.9-13c-0.8-11.6,4.2-17.8,15.1-18.6c1.6-0.1,3.3-0.1,5,0.2c1.7,0.2,3.1,0.6,4.1,1.1
					c0.9,0.4,1.3,0.9,1.4,1.5c0,0.5-0.1,1.1-0.4,1.8c-0.3,0.8-0.7,1.4-1.2,2c-0.5,0.6-0.9,0.9-1.3,1c-0.1,0-0.5-0.1-1.2-0.4
					s-1.6-0.4-2.5-0.6c-1-0.2-2.2-0.2-3.5-0.1c-2.9,0.2-4.9,1.3-6.2,3.2c-1.3,1.9-1.8,4.7-1.5,8.4c0.5,7.4,3.6,10.9,9.2,10.5
					c1.5-0.1,2.7-0.3,3.8-0.7c1.1-0.4,2.1-0.8,3-1.3c0.5-0.3,0.9-0.5,1-0.5c0.5,0,1,0.2,1.5,0.7c0.5,0.5,0.9,1.1,1.2,1.8
					c0.3,0.7,0.5,1.2,0.5,1.5c0.1,0.8-0.5,1.6-1.5,2.4c-1,0.7-2.4,1.3-4.2,1.7c-1.7,0.4-3.4,0.7-4.9,0.8
					C28.1,88.7,24,87.6,21.1,84.9z"/>
			</g>
			<g>
				<g>
					<path class="st0" d="M48.4,83.8c-2.2-2.1-3.4-5.3-3.7-9.6s0.5-7.6,2.3-10c1.9-2.4,4.7-3.7,8.6-4c3.9-0.3,6.9,0.6,9.1,2.7
						c2.2,2.1,3.4,5.3,3.7,9.6c0.3,4.3-0.5,7.6-2.3,10c-1.8,2.4-4.7,3.7-8.6,4C53.6,86.9,50.6,86,48.4,83.8z M60.4,78.8
						c0.6-1.3,0.9-3.2,0.7-5.7c-0.2-2.5-0.7-4.3-1.5-5.5c-0.8-1.2-2-1.7-3.5-1.6c-1.5,0.1-2.6,0.8-3.3,2.1c-0.7,1.3-0.9,3.2-0.7,5.7
						c0.4,5,2,7.4,5.1,7.2C58.6,80.8,59.7,80.1,60.4,78.8z"/>
					<path d="M56.2,87.1c-3.4,0-6.1-1-8.1-3c-2.3-2.2-3.6-5.5-3.9-9.9c-0.3-4.4,0.5-7.9,2.4-10.3c1.9-2.5,5-3.9,9-4.2
						c4-0.3,7.2,0.7,9.4,2.9c2.2,2.2,3.5,5.5,3.9,9.9c0.3,4.4-0.5,7.9-2.4,10.4c-1.9,2.5-4.9,3.9-8.9,4.2
						C57.1,87.1,56.7,87.1,56.2,87.1z M56.9,60.7c-0.4,0-0.8,0-1.3,0c-3.7,0.3-6.5,1.5-8.2,3.8c-1.8,2.3-2.5,5.5-2.2,9.6
						c0.3,4.1,1.5,7.2,3.6,9.3l0,0c2.1,2,5,2.9,8.7,2.6c3.7-0.3,6.5-1.6,8.2-3.8c1.8-2.3,2.5-5.6,2.2-9.7c-0.3-4.1-1.5-7.2-3.6-9.2
						C62.6,61.6,60.1,60.7,56.9,60.7z M56.7,81.4c-3.1,0-4.8-2.6-5.2-7.6c-0.2-2.6,0.1-4.5,0.8-5.9c0.7-1.5,2-2.3,3.7-2.4
						c1.7-0.1,3.1,0.5,4,1.8c0.9,1.3,1.4,3.2,1.6,5.7c0.2,2.6-0.1,4.5-0.8,5.9c-0.7,1.5-2,2.3-3.7,2.4C57,81.4,56.9,81.4,56.7,81.4z
						 M56.4,66.5c-0.1,0-0.2,0-0.3,0c-1.4,0.1-2.3,0.7-2.9,1.8c-0.6,1.2-0.8,3-0.7,5.4c0.3,4.7,1.8,6.9,4.5,6.7
						c1.4-0.1,2.3-0.7,2.8-1.8c0.6-1.2,0.8-3,0.7-5.4c-0.2-2.4-0.6-4.1-1.4-5.2C58.5,66.9,57.6,66.5,56.4,66.5z"/>
				</g>
			</g>
			<g>
				<g>
					<path class="st0" d="M74.3,83.5L73.2,68c-0.1-1.4-0.2-2.5-0.4-3.3c-0.1-0.8-0.3-1.6-0.5-2.5c-0.1-0.4-0.2-0.8-0.2-1
						c0-0.5,0.6-1,1.9-1.3c1.3-0.4,2.5-0.6,3.5-0.6c0.6,0,1,0.1,1.3,0.6s0.5,0.9,0.6,1.4c0.2,0.5,0.3,0.9,0.3,1.1
						c0.7-1.1,1.7-2.1,2.9-2.9c1.3-0.8,2.6-1.3,4.1-1.4c2.4-0.2,4.3,0.3,5.6,1.5c1.3,1.2,2,3.2,2.2,5.9L95.6,82
						c0.1,1-0.9,1.6-2.8,1.8l-1.4,0.1c-2,0.1-3-0.3-3-1.4L87.3,67c-0.1-1-0.4-1.8-0.8-2.2c-0.5-0.5-1.3-0.7-2.3-0.6
						c-0.9,0.1-1.6,0.4-2.3,1c-0.6,0.6-1.1,1.3-1.4,2.1L81.5,83c0.1,1-0.9,1.6-2.8,1.8l-1.4,0.1C75.4,85,74.4,84.6,74.3,83.5z"/>
					<path d="M76.7,85.4c-0.7,0-1.3-0.1-1.8-0.3c-0.7-0.3-1.1-0.8-1.1-1.5l-1.1-15.5c-0.1-1.4-0.2-2.5-0.4-3.2
						c-0.1-0.8-0.3-1.6-0.5-2.5c-0.1-0.5-0.2-0.8-0.2-1.1c-0.1-1.2,1.7-1.7,2.3-1.8c1.3-0.4,2.5-0.6,3.6-0.7c1-0.1,1.5,0.4,1.7,0.8
						c0.3,0.5,0.5,1,0.7,1.5c0,0,0,0.1,0,0.1c0.7-0.8,1.5-1.5,2.5-2.2c1.3-0.9,2.8-1.3,4.3-1.4c2.6-0.2,4.6,0.4,5.9,1.7
						c1.4,1.3,2.1,3.4,2.3,6.2L96.1,82c0.1,0.7-0.3,1.3-0.9,1.7c-0.5,0.3-1.3,0.5-2.4,0.6l-1.4,0.1c-2.8,0.2-3.5-0.9-3.6-1.8
						l-1.1-15.5c-0.1-0.9-0.3-1.5-0.7-1.9c-0.4-0.4-1-0.5-1.9-0.5c-0.8,0.1-1.4,0.3-1.9,0.9c-0.5,0.5-1,1.2-1.3,1.8L82,83
						c0.1,0.9-0.4,2.1-3.3,2.3l-1.4,0.1C77.1,85.4,76.9,85.4,76.7,85.4z M74.8,83.5c0,0.3,0.2,0.5,0.5,0.7c0.4,0.2,1.1,0.3,2,0.2
						l1.4-0.1c1.6-0.1,2.4-0.5,2.4-1.2l-1.1-15.8l0-0.1c0.4-0.8,0.9-1.6,1.6-2.2c0.7-0.7,1.6-1.1,2.6-1.2c1.2-0.1,2.1,0.2,2.7,0.7
						c0.6,0.6,0.9,1.4,1,2.5l1.1,15.5c0.1,0.7,0.9,1,2.5,0.9l1.4-0.1c0.9-0.1,1.5-0.2,1.9-0.5c0.3-0.2,0.4-0.4,0.4-0.8l-1.2-16.6
						c-0.2-2.6-0.9-4.4-2-5.5c-1.2-1.1-2.9-1.6-5.2-1.4c-1.4,0.1-2.7,0.5-3.8,1.3c-1.2,0.8-2.1,1.7-2.8,2.7l-0.6,1l-0.3-1.1
						c0-0.2-0.1-0.5-0.3-1c-0.1-0.5-0.3-0.9-0.6-1.3c-0.1-0.2-0.3-0.4-0.8-0.3c-1,0.1-2.1,0.3-3.4,0.6c-1.3,0.3-1.5,0.7-1.5,0.8
						c0,0.1,0.1,0.4,0.2,0.9c0.2,1,0.4,1.8,0.5,2.6c0.1,0.8,0.3,1.9,0.4,3.3L74.8,83.5z"/>
				</g>
			</g>
			<g>
				<g>
					<path class="st0" d="M106.8,81.8l-9.4-22.2c-0.2-0.4-0.2-0.7-0.3-0.9c-0.1-0.7,0.9-1.1,2.9-1.3l1.6-0.1
						c1.6-0.1,2.5,0.2,2.8,0.8l3.5,8.8c0.2,0.5,0.6,1.8,1.2,3.7l0.6,2.1l0.2,0c0.4-2.9,0.7-4.9,0.9-6l2.2-9.2
						c0.2-0.7,1.1-1.1,2.7-1.2l1.2-0.1c2-0.1,3,0.2,3,0.9c0,0.2,0,0.5-0.1,0.9l-6.2,23.3c-0.2,0.7-1.1,1.1-2.7,1.2l-1.6,0.1
						C108.1,82.7,107.2,82.4,106.8,81.8z"/>
					<path d="M109,83.1c-1.4,0-2.3-0.4-2.6-1.1l0,0L97,59.7c-0.2-0.7-0.3-0.9-0.3-1c0-0.4,0.1-1,1-1.4c0.5-0.2,1.3-0.4,2.4-0.5
						l1.6-0.1c1.9-0.1,2.9,0.2,3.3,1.1l3.5,8.8c0.2,0.5,0.6,1.8,1.2,3.8l0.1,0.2c0.3-1.9,0.5-3.3,0.7-4.2l2.2-9.3
						c0.2-0.9,1.3-1.5,3.1-1.6l1.2-0.1c0.8-0.1,3.4-0.2,3.5,1.3c0,0.3,0,0.6-0.1,1l-6.2,23.4c-0.2,0.9-1.3,1.5-3.1,1.6l-1.6,0.1
						C109.5,83.1,109.2,83.1,109,83.1z M107.3,81.6c0.2,0.4,1,0.6,2.3,0.5l1.6-0.1c1.3-0.1,2.1-0.4,2.2-0.8l6.2-23.3
						c0.1-0.4,0.1-0.6,0.1-0.7c0-0.2-0.6-0.5-2.5-0.4l-1.2,0.1c-1.3,0.1-2.1,0.4-2.2,0.8l-2.2,9.2c-0.2,1.1-0.6,3.1-0.9,6l-0.1,0.4
						l-1,0.1l-0.7-2.5c-0.6-2-1-3.2-1.2-3.7l-3.5-8.8c-0.2-0.4-1-0.6-2.3-0.5l-1.6,0.1c-0.9,0.1-1.6,0.2-2.1,0.4
						c-0.3,0.1-0.4,0.2-0.4,0.4c0,0,0,0.2,0.2,0.7L107.3,81.6z"/>
				</g>
			</g>
			<g>
				<g>
					<path class="st0" d="M127.3,78.2c-2.3-2.1-3.5-5.3-3.8-9.3c-0.3-4.6,0.5-8,2.4-10.3c1.9-2.3,4.8-3.6,8.5-3.8
						c3.6-0.3,6.4,0.7,8.2,3c1.9,2.2,2.9,5.2,3.2,8.9c0,0.4-0.3,1-0.9,1.8c-0.6,0.8-1.1,1.2-1.4,1.3l-12.5,0.9
						c0.3,1.8,0.9,3.1,1.9,3.8c1,0.7,2.3,1,4,0.9c0.9-0.1,1.7-0.2,2.5-0.5c0.7-0.3,1.5-0.6,2.3-1c0.5-0.3,0.9-0.5,1-0.5
						c0.3,0,0.7,0.2,1.2,0.6c0.4,0.4,0.8,1,1.1,1.5c0.3,0.6,0.5,1,0.5,1.4c0.1,0.8-0.4,1.4-1.4,2c-1,0.6-2.2,1.1-3.5,1.5
						c-1.4,0.4-2.6,0.6-3.6,0.7C132.8,81.2,129.6,80.3,127.3,78.2z M138.7,65.1c-0.1-1.5-0.5-2.7-1.1-3.5c-0.7-0.9-1.6-1.2-2.7-1.2
						c-2.4,0.2-3.8,1.9-4,5.2L138.7,65.1z"/>
					<path d="M135.6,81.5c-3.7,0-6.6-1-8.6-3c-2.3-2.2-3.7-5.5-4-9.7c-0.3-4.7,0.5-8.3,2.6-10.7c2-2.4,5-3.7,8.8-4
						c3.8-0.3,6.7,0.8,8.7,3.1c1.9,2.3,3.1,5.4,3.3,9.2c0,0.5-0.3,1.2-1,2.1c-0.7,1-1.3,1.4-1.8,1.5l-11.9,0.8
						c0.3,1.4,0.9,2.4,1.6,3c0.9,0.6,2.1,0.9,3.7,0.8c0.9-0.1,1.6-0.2,2.3-0.5c0.7-0.3,1.5-0.6,2.2-1c0.7-0.4,1-0.5,1.2-0.5
						c0.5,0,1,0.2,1.5,0.8c0.5,0.5,0.9,1,1.2,1.7c0.4,0.7,0.5,1.2,0.6,1.6c0.1,0.9-0.5,1.8-1.6,2.5c-1,0.6-2.2,1.1-3.7,1.5
						c-1.4,0.4-2.7,0.6-3.7,0.7C136.6,81.5,136.1,81.5,135.6,81.5z M135.5,55.1c-0.4,0-0.7,0-1.1,0c-3.6,0.3-6.3,1.5-8.1,3.7
						c-1.9,2.2-2.6,5.5-2.3,10c0.3,3.9,1.5,7,3.7,9c2.1,2,5.3,2.9,9.5,2.6c1-0.1,2.2-0.3,3.5-0.6c1.3-0.3,2.5-0.8,3.4-1.4
						c0.8-0.5,1.2-1,1.1-1.6c0-0.2-0.1-0.5-0.5-1.2c-0.3-0.5-0.7-1-1.1-1.4c-0.5-0.5-0.7-0.5-0.8-0.5c0,0-0.2,0-0.8,0.4
						c-0.8,0.4-1.6,0.7-2.4,1c-0.8,0.3-1.7,0.5-2.6,0.5c-1.8,0.1-3.3-0.2-4.4-1c-1.1-0.8-1.8-2.2-2.1-4.2l-0.1-0.5l13-0.9
						c0,0,0.3-0.1,1-1.1c0.7-1,0.8-1.4,0.8-1.5c-0.3-3.6-1.3-6.5-3.1-8.6C140.7,56,138.4,55.1,135.5,55.1z M130.2,66.2l0.1-0.6
						c0.3-3.6,1.8-5.5,4.5-5.7c1.3-0.1,2.4,0.4,3.2,1.4c0.7,0.9,1.1,2.2,1.2,3.8l0,0.5L130.2,66.2z M135.1,60.9c-0.1,0-0.2,0-0.3,0
						c-2,0.1-3.2,1.5-3.5,4.2l6.8-0.5c-0.1-1.2-0.5-2.1-1-2.8C136.6,61.2,136,60.9,135.1,60.9z"/>
				</g>
			</g>
			<g>
				<g>
					<path class="st0" d="M151.6,78l-1.1-15.5c-0.1-1.4-0.2-2.5-0.4-3.3c-0.1-0.8-0.3-1.6-0.5-2.5c-0.1-0.4-0.2-0.8-0.2-1
						c0-0.5,0.6-1,1.9-1.3c1.3-0.4,2.5-0.6,3.5-0.6c0.6,0,1,0.1,1.3,0.6c0.3,0.4,0.5,0.9,0.6,1.4c0.2,0.5,0.3,0.9,0.3,1.1
						c0.5-1.2,1.2-2.1,2-2.9c0.8-0.7,1.8-1.1,3.1-1.2c1-0.1,1.8,0.1,2.2,0.7c0.4,0.5,0.7,1.1,0.7,1.8s0,1.5-0.3,2.6
						c-0.2,1-0.5,1.6-1,1.6c-0.2,0-0.5,0-1-0.1c-0.5-0.1-0.9-0.1-1.3-0.1c-0.9,0.1-1.6,0.4-2.3,0.9c-0.6,0.6-1.1,1.2-1.5,1.8
						l1.1,15.7c0.1,1-0.9,1.6-2.8,1.8l-1.4,0.1C152.7,79.5,151.6,79.1,151.6,78z"/>
					<path d="M154,79.9c-0.7,0-1.3-0.1-1.8-0.3c-0.7-0.3-1.1-0.8-1.1-1.5L150,62.6c-0.1-1.4-0.2-2.5-0.4-3.2
						c-0.1-0.8-0.3-1.6-0.5-2.5c-0.1-0.5-0.2-0.8-0.2-1.1c-0.1-1.2,1.7-1.7,2.3-1.8c1.3-0.4,2.5-0.6,3.6-0.7c1-0.1,1.5,0.4,1.7,0.8
						c0.3,0.4,0.5,0.9,0.6,1.4c0.4-0.7,0.9-1.4,1.5-1.9c0.9-0.8,2-1.3,3.4-1.4c1.2-0.1,2.1,0.2,2.6,0.8c0.5,0.6,0.8,1.3,0.9,2.1
						c0.1,0.7,0,1.6-0.3,2.7c-0.1,0.5-0.4,1.9-1.4,2c-0.2,0-0.6,0-1.2-0.1c-0.5-0.1-0.8-0.1-1.2-0.1c-0.8,0.1-1.4,0.3-2,0.8
						c-0.5,0.5-1,1-1.3,1.5l1.1,15.5c0.1,0.9-0.4,2.1-3.3,2.3l-1.4,0.1C154.4,79.9,154.2,79.9,154,79.9z M152.1,78
						c0,0.3,0.2,0.5,0.5,0.7c0.4,0.2,1.1,0.3,2,0.2l1.4-0.1c1.6-0.1,2.4-0.5,2.4-1.2l-1.1-15.8l0.1-0.1c0.4-0.7,0.9-1.3,1.6-1.9
						c0.7-0.6,1.6-1,2.6-1c0.4,0,0.9,0,1.4,0.1c0.6,0.1,0.8,0.1,0.9,0.1c0,0,0.3-0.1,0.5-1.2c0.2-1,0.3-1.8,0.2-2.5
						c0-0.6-0.2-1.1-0.6-1.5c-0.3-0.4-0.9-0.5-1.8-0.5c-1.1,0.1-2.1,0.4-2.8,1.1c-0.7,0.7-1.4,1.6-1.9,2.7l-0.6,1.3l-0.3-1.4
						c0-0.2-0.1-0.5-0.3-1c-0.1-0.5-0.3-0.9-0.6-1.3c-0.1-0.2-0.3-0.4-0.8-0.3c-1,0.1-2.1,0.3-3.4,0.6c-1.3,0.3-1.5,0.7-1.5,0.8
						c0,0.1,0.1,0.4,0.2,0.9c0.2,1,0.4,1.8,0.5,2.6c0.1,0.8,0.3,1.9,0.4,3.3L152.1,78z"/>
				</g>
			</g>
			<g>
				<g>
					<path class="st0" d="M171.5,77.6c-1.7-0.5-2.6-1.2-2.7-2.2c0-0.7,0.2-1.5,0.8-2.4c0.6-1,1.1-1.5,1.6-1.5c0.3,0,0.6,0.1,1.1,0.3
						c0.7,0.2,1.3,0.4,1.9,0.6c0.6,0.1,1.3,0.2,2,0.1c0.9-0.1,1.6-0.3,2.1-0.7c0.5-0.4,0.7-0.9,0.6-1.6c0-0.6-0.3-1-0.6-1.4
						c-0.4-0.3-0.8-0.6-1.2-0.7c-0.4-0.2-1.3-0.4-2.6-0.8c-1.7-0.5-3.1-1.3-4.2-2.3c-1.1-1-1.7-2.5-1.9-4.7c-0.2-2.5,0.5-4.5,2-6.1
						c1.5-1.5,3.6-2.4,6.3-2.6c1.7-0.1,3.4,0,5,0.4c1.6,0.4,2.5,1,2.5,1.9c0,0.6-0.1,1.4-0.6,2.4c-0.4,1-0.8,1.5-1.3,1.6
						c-0.1,0-0.6-0.1-1.5-0.4c-0.8-0.3-1.8-0.4-2.8-0.3c-1.7,0.1-2.5,0.8-2.5,1.9c0.1,0.7,0.4,1.3,1,1.6c0.6,0.4,1.5,0.7,2.8,1.1
						c0.2,0.1,0.5,0.2,1,0.3c0.4,0.1,0.8,0.3,1.1,0.4c1.3,0.5,2.4,1.3,3.3,2.3c0.8,1,1.3,2.4,1.4,4.1c0.2,2.5-0.5,4.6-2.1,6.3
						c-1.6,1.6-3.9,2.6-6.9,2.8C175.1,78.2,173.3,78.1,171.5,77.6z"/>
					<path d="M175.8,78.6c-1.6,0-3.1-0.2-4.5-0.6c-2-0.6-3-1.5-3.1-2.7c-0.1-0.8,0.2-1.6,0.8-2.7c0.7-1.2,1.3-1.7,2-1.8
						c0.3,0,0.8,0.1,1.4,0.4c0.6,0.2,1.3,0.4,1.8,0.5c0.5,0.1,1.2,0.2,1.8,0.1c0.8-0.1,1.4-0.2,1.8-0.6c0.3-0.3,0.5-0.7,0.4-1.2
						c0-0.5-0.2-0.8-0.5-1c-0.3-0.3-0.7-0.5-1.1-0.7c-0.4-0.2-1.3-0.4-2.5-0.8c-1.8-0.6-3.3-1.3-4.4-2.4c-1.2-1.1-1.9-2.7-2-5
						c-0.2-2.6,0.5-4.8,2.1-6.4c1.6-1.6,3.8-2.5,6.7-2.7c1.8-0.1,3.5,0,5.2,0.4c1.8,0.4,2.8,1.2,2.9,2.4c0.1,0.7-0.1,1.6-0.6,2.7
						c-0.5,1.2-1,1.8-1.7,1.9c-0.2,0-0.4,0-1.6-0.4c-0.8-0.3-1.7-0.4-2.6-0.3c-0.8,0.1-1.3,0.2-1.6,0.5c-0.3,0.2-0.4,0.5-0.4,0.9
						c0,0.6,0.3,0.9,0.7,1.2c0.6,0.3,1.5,0.7,2.7,1.1c0.2,0.1,0.5,0.2,0.9,0.3c0.5,0.1,0.9,0.3,1.2,0.4c1.4,0.5,2.6,1.4,3.5,2.4
						c0.9,1.1,1.4,2.6,1.6,4.4c0.2,2.7-0.6,4.9-2.2,6.6c-1.7,1.7-4.1,2.7-7.2,2.9C176.7,78.6,176.3,78.6,175.8,78.6z M171.2,71.9
						C171.2,71.9,171.2,71.9,171.2,71.9c-0.1,0-0.5,0.1-1.2,1.3c-0.5,0.9-0.7,1.6-0.7,2.2c0.1,0.7,0.8,1.3,2.4,1.8l0,0
						c1.7,0.5,3.5,0.7,5.5,0.5c2.9-0.2,5.1-1.1,6.6-2.6c1.5-1.5,2.1-3.5,2-5.9c-0.1-1.6-0.6-2.9-1.3-3.9c-0.8-0.9-1.8-1.7-3.1-2.2
						c-0.3-0.1-0.7-0.3-1.1-0.4c-0.5-0.1-0.8-0.3-1-0.3c-1.3-0.4-2.2-0.8-2.8-1.2c-0.7-0.4-1.2-1.1-1.2-2c-0.1-0.7,0.2-1.3,0.8-1.8
						c0.5-0.4,1.2-0.6,2.2-0.7c1.1-0.1,2.1,0,3,0.3c1,0.3,1.3,0.4,1.3,0.4c0,0,0.3-0.1,0.8-1.3c0.4-0.9,0.6-1.7,0.5-2.2
						c0-0.7-0.8-1.2-2.1-1.5c-1.6-0.4-3.2-0.5-4.9-0.4c-2.6,0.2-4.6,1-6,2.4c-1.4,1.4-2,3.3-1.8,5.7c0.1,2,0.7,3.5,1.7,4.3
						c1,0.9,2.4,1.6,4,2.2c1.3,0.4,2.1,0.6,2.6,0.8c0.5,0.2,1,0.5,1.4,0.8c0.5,0.4,0.8,1,0.8,1.7c0.1,0.8-0.2,1.5-0.8,2
						c-0.5,0.5-1.3,0.7-2.4,0.8c-0.8,0.1-1.5,0-2.2-0.1c-0.6-0.1-1.3-0.3-2-0.6C171.5,71.9,171.3,71.9,171.2,71.9z"/>
				</g>
			</g>
			<g>
				<g>
					<path class="st0" d="M188.4,46.1l-0.2-3.5c-0.1-1.2,1.1-1.9,3.5-2.1c2.4-0.2,3.7,0.3,3.7,1.6l0.2,3.5c0.1,1.2-1.1,1.9-3.5,2.1
						C189.7,47.9,188.5,47.4,188.4,46.1z M190.5,75.3l-1.6-22.6c-0.1-1,0.9-1.6,2.8-1.8l1.4-0.1c2-0.1,3,0.3,3,1.4l1.6,22.6
						c0.1,1-0.9,1.6-2.8,1.8l-1.4,0.1C191.6,76.8,190.6,76.3,190.5,75.3z"/>
					<path d="M192.9,77.2c-2.3,0-2.9-1-2.9-1.8l-1.6-22.6c-0.1-0.7,0.3-1.3,0.9-1.7c0.5-0.3,1.3-0.5,2.4-0.6l1.4-0.1
						c2.8-0.2,3.5,0.9,3.6,1.8l1.6,22.6c0.1,0.9-0.4,2.1-3.3,2.3l-1.4,0.1C193.3,77.1,193.1,77.2,192.9,77.2z M191,75.2
						c0.1,0.7,0.9,1,2.5,0.9l1.4-0.1c1.6-0.1,2.4-0.5,2.4-1.2l-1.6-22.6c-0.1-0.7-0.9-1-2.5-0.9l-1.4,0.1c-0.9,0.1-1.5,0.2-1.9,0.5
						c-0.3,0.2-0.4,0.4-0.4,0.8L191,75.2z M191.3,48.3c-0.9,0-1.6-0.1-2.1-0.3c-0.8-0.3-1.2-0.9-1.3-1.8l-0.2-3.5
						c0-0.6,0.1-1.3,1.1-1.9c0.7-0.4,1.6-0.6,2.9-0.7c2.7-0.2,4.2,0.5,4.3,2l0.2,3.5c0.1,1.6-1.2,2.5-3.9,2.6
						C191.9,48.3,191.6,48.3,191.3,48.3z M192.5,41.1c-0.3,0-0.5,0-0.8,0c-1.1,0.1-1.9,0.3-2.5,0.6c-0.4,0.2-0.6,0.5-0.6,1l0.2,3.5
						c0,0.4,0.2,0.7,0.7,0.9c0.5,0.2,1.4,0.3,2.5,0.2c2.1-0.1,3.1-0.7,3-1.6l-0.2-3.5C194.8,41.4,194,41.1,192.5,41.1z"/>
				</g>
			</g>
			<g>
				<g>
					<path class="st0" d="M205.5,72.7c-2.2-2.1-3.4-5.3-3.7-9.6c-0.3-4.3,0.5-7.6,2.3-10c1.9-2.4,4.7-3.7,8.6-4s6.9,0.6,9.1,2.7
						c2.2,2.1,3.4,5.3,3.7,9.6c0.3,4.3-0.5,7.6-2.3,10c-1.8,2.4-4.7,3.7-8.6,4C210.7,75.7,207.7,74.8,205.5,72.7z M217.5,67.6
						c0.6-1.3,0.9-3.2,0.7-5.7c-0.2-2.5-0.7-4.3-1.5-5.5c-0.8-1.2-2-1.7-3.5-1.6c-1.5,0.1-2.6,0.8-3.3,2.1c-0.7,1.3-0.9,3.2-0.7,5.7
						c0.4,5,2,7.4,5.1,7.2C215.7,69.6,216.8,68.9,217.5,67.6z"/>
					<path d="M213.3,76c-3.4,0-6.1-1-8.1-3l0,0c-2.3-2.2-3.6-5.5-3.9-9.9c-0.3-4.4,0.5-7.9,2.4-10.3c1.9-2.5,5-3.9,9-4.2
						c4-0.3,7.2,0.7,9.4,2.9c2.2,2.2,3.5,5.5,3.9,9.9c0.3,4.4-0.5,7.9-2.4,10.4c-1.9,2.5-4.9,3.9-8.9,4.2
						C214.2,76,213.8,76,213.3,76z M214,49.5c-0.4,0-0.8,0-1.3,0c-3.7,0.3-6.5,1.5-8.2,3.8c-1.8,2.3-2.5,5.5-2.2,9.6
						c0.3,4.1,1.5,7.2,3.6,9.3l0,0c2.1,2,5,2.9,8.7,2.6c3.7-0.3,6.5-1.6,8.2-3.8c1.8-2.3,2.5-5.6,2.2-9.7c-0.3-4.1-1.5-7.2-3.6-9.2
						C219.6,50.4,217.1,49.5,214,49.5z M213.8,70.2c-1.5,0-2.7-0.6-3.6-1.9c-0.9-1.3-1.4-3.2-1.6-5.8c-0.2-2.6,0.1-4.5,0.8-5.9
						c0.7-1.5,2-2.3,3.7-2.4c1.7-0.1,3.1,0.5,4,1.8c0.9,1.3,1.4,3.2,1.6,5.7c0.2,2.6-0.1,4.6-0.8,5.9v0c-0.7,1.5-2,2.3-3.7,2.4
						C214.1,70.2,214,70.2,213.8,70.2z M213.5,55.3c-0.1,0-0.2,0-0.3,0c-1.4,0.1-2.3,0.7-2.9,1.8c-0.6,1.2-0.8,3-0.7,5.4
						c0.2,2.4,0.7,4.2,1.4,5.3c0.7,1,1.8,1.5,3.1,1.4c1.4-0.1,2.3-0.7,2.8-1.8v0c0.6-1.2,0.8-3,0.7-5.4c-0.2-2.4-0.6-4.1-1.4-5.2
						C215.6,55.7,214.7,55.3,213.5,55.3z"/>
				</g>
			</g>
			<g>
				<g>
					<path class="st0" d="M231.4,72.4l-1.1-15.5c-0.1-1.4-0.2-2.5-0.4-3.3c-0.1-0.8-0.3-1.6-0.5-2.5c-0.1-0.4-0.2-0.8-0.2-1
						c0-0.5,0.6-1,1.9-1.3c1.3-0.4,2.5-0.6,3.5-0.6c0.6,0,1,0.1,1.3,0.6c0.3,0.4,0.5,0.9,0.6,1.4c0.2,0.5,0.2,0.9,0.3,1.1
						c0.7-1.1,1.7-2.1,2.9-2.9c1.3-0.8,2.6-1.3,4.1-1.4c2.4-0.2,4.3,0.3,5.6,1.5c1.3,1.2,2,3.2,2.2,5.9l1.2,16.6
						c0.1,1-0.9,1.6-2.8,1.8l-1.4,0.1c-2,0.1-3-0.3-3-1.4l-1.1-15.5c-0.1-1-0.4-1.8-0.8-2.2c-0.5-0.5-1.3-0.7-2.3-0.6
						c-0.9,0.1-1.6,0.4-2.3,1c-0.6,0.6-1.1,1.3-1.4,2.1l1.1,15.7c0.1,1-0.9,1.6-2.8,1.8l-1.4,0.1C232.5,73.9,231.5,73.4,231.4,72.4z
						"/>
					<path d="M233.8,74.2c-2.3,0-2.9-1-2.9-1.8l-1.1-15.5c-0.1-1.4-0.2-2.5-0.4-3.2c-0.1-0.8-0.3-1.6-0.5-2.5
						c-0.1-0.5-0.2-0.8-0.2-1.1c-0.1-1.2,1.7-1.7,2.3-1.8c1.3-0.4,2.5-0.6,3.6-0.7c1-0.1,1.5,0.4,1.7,0.8c0.3,0.5,0.5,1,0.7,1.5
						c0,0,0,0.1,0,0.1c0.7-0.8,1.5-1.5,2.5-2.2c1.3-0.9,2.8-1.3,4.3-1.4c2.6-0.2,4.6,0.4,5.9,1.7c1.4,1.3,2.1,3.4,2.3,6.2l1.2,16.6
						c0.1,0.9-0.4,2.1-3.3,2.3l-1.4,0.1c-1.1,0.1-1.9,0-2.5-0.3c-0.7-0.3-1.1-0.8-1.1-1.5l-1.1-15.5c-0.1-0.9-0.3-1.5-0.7-1.9
						c-0.4-0.4-1-0.5-1.9-0.5c-0.8,0.1-1.4,0.3-1.9,0.9c-0.6,0.5-1,1.2-1.3,1.8l1.1,15.6c0.1,0.7-0.3,1.3-0.9,1.7
						c-0.5,0.3-1.3,0.5-2.4,0.6l-1.4,0.1C234.2,74.2,234,74.2,233.8,74.2z M231.9,72.3c0.1,0.7,0.9,1,2.5,0.9l1.4-0.1
						c0.9-0.1,1.5-0.2,1.9-0.5c0.3-0.2,0.4-0.4,0.4-0.8L237,56.1l0-0.1c0.4-0.8,0.9-1.6,1.6-2.3c0.7-0.7,1.6-1.1,2.6-1.2
						c1.2-0.1,2.1,0.2,2.7,0.7c0.6,0.6,0.9,1.4,1,2.6l1.1,15.5c0,0.3,0.2,0.5,0.5,0.7c0.4,0.2,1.1,0.3,2,0.2l1.4-0.1
						c1.6-0.1,2.4-0.5,2.4-1.2L251,54.3c-0.2-2.6-0.9-4.4-2-5.5c-1.2-1.1-2.9-1.6-5.2-1.4c-1.4,0.1-2.7,0.5-3.8,1.3
						c-1.2,0.8-2.1,1.7-2.8,2.7l-0.6,1l-0.3-1.1c0-0.2-0.1-0.5-0.3-1c-0.1-0.5-0.3-0.9-0.6-1.3c-0.1-0.2-0.3-0.4-0.8-0.3
						c-1,0.1-2.1,0.3-3.4,0.6c-1.3,0.3-1.5,0.7-1.5,0.8c0,0.1,0.1,0.4,0.2,0.9c0.2,1,0.4,1.8,0.5,2.6c0.1,0.8,0.3,1.9,0.4,3.3
						L231.9,72.3z"/>
				</g>
			</g>
		</g>
	</g>
	<g>
		<g>
			<path d="M66.5,14.2c-3.9,0-7.1-3.2-7.1-7.1S62.6,0,66.5,0s7.1,3.2,7.1,7.1S70.4,14.2,66.5,14.2z M66.5,3c-2.3,0-4.1,1.8-4.1,4.1
				c0,2.3,1.8,4.1,4.1,4.1s4.1-1.8,4.1-4.1C70.6,4.8,68.8,3,66.5,3z"/>
		</g>
	</g>
	<g>
		<g>
			<path d="M7.1,65.4c-3.9,0-7.1-3.2-7.1-7.1s3.2-7.1,7.1-7.1s7.1,3.2,7.1,7.1S11.1,65.4,7.1,65.4z M7.1,54.2C4.8,54.2,3,56,3,58.3
				c0,2.3,1.8,4.1,4.1,4.1s4.1-1.8,4.1-4.1C11.2,56,9.4,54.2,7.1,54.2z"/>
		</g>
	</g>
	<g>
		<g>
			<g>
				<path d="M9.3,41.1l-1-0.2C12.1,21.6,28.5,7.4,48.1,6.3l0.1,1C29,8.4,13,22.3,9.3,41.1z"/>
			</g>
		</g>
		<g>
			<g>
				<polygon points="11.4,40.6 8.3,44.5 6.5,39.8 				"/>
			</g>
		</g>
		<g>
			<g>
				<polygon points="46.6,11.9 55.3,7 46.7,1.9 				"/>
			</g>
		</g>
	</g>
</g>
</svg>
