<svg version="1.1" id="Layer_1" xmlns="http://www.w3.org/2000/svg" xmlns:xlink="http://www.w3.org/1999/xlink" x="0px" y="0px"
	 width="431.182px" height="184.171px" viewBox="0 0 431.182 184.171" enable-background="new 0 0 431.182 184.171"
	 xml:space="preserve">
<g>
	<g>
		<g>
			<g>
				<g>
					<path d="M8.64,111.863c-0.72-0.121-1.426-0.346-2.115-0.675c-0.69-0.329-1.26-0.81-1.71-1.439
						c-0.45-0.631-0.675-1.485-0.675-2.565c0-0.779,0.225-1.515,0.675-2.205c0.45-0.689,1.02-1.305,1.71-1.845
						c0.689-0.54,1.44-0.959,2.25-1.26c0.81-0.3,1.575-0.48,2.295-0.54c1.919,0,4.109,0.6,6.57,1.8c1.08-1.98,1.814-4.08,2.205-6.3
						c0.39-2.22,0.585-4.23,0.585-6.03c0-1.56-0.076-3.195-0.225-4.905c-0.15-1.71-0.315-3.404-0.495-5.085
						c-0.18-1.62-0.36-3.225-0.54-4.814s-0.27-3.074-0.27-4.455c0.059-1.2,0.194-2.476,0.405-3.825
						c0.209-1.351,0.524-2.669,0.945-3.96c0.419-1.29,2.959-7.46,3.62-8.51c0.659-1.05,1.469-1.875,2.43-2.476
						c0.18-0.18,0.39-0.27,0.63-0.27c0.419,0,0.779,0.211,1.08,0.63c0.059,0.18,0.09,0.359,0.09,0.54c0,0.18-0.031,0.359-0.09,0.54
						c-0.06,0.18-0.24,0.301-0.54,0.359c-1.381,1.021-4.43,7.7-5.15,10.04c-0.72,2.34-1.111,4.65-1.17,6.931
						c0,1.381,0.075,2.835,0.225,4.364c0.149,1.53,0.315,3.076,0.495,4.636c0.18,1.68,0.36,3.375,0.54,5.085
						c0.18,1.71,0.27,3.436,0.27,5.175c0,2.101-0.256,4.32-0.765,6.66c-0.511,2.34-1.246,4.53-2.205,6.569
						c0.72,0.36,1.424,0.706,2.115,1.035c0.689,0.331,1.395,0.675,2.115,1.035c1.679,0.9,3.375,1.71,5.085,2.43
						c1.71,0.721,3.405,1.08,5.085,1.08c3-0.059,5.774-0.944,8.325-2.654c2.549-1.71,4.739-3.915,6.57-6.615
						c1.83-2.7,3.254-5.7,4.275-9c1.02-3.299,1.53-6.57,1.53-9.811c0-3.6-0.69-7.109-2.07-10.529
						c-1.381-3.42-3.255-6.48-5.625-9.181c-2.371-2.699-5.161-4.859-8.37-6.479c-3.21-1.62-6.646-2.43-10.305-2.43
						c-3.06,0-5.94,0.585-8.64,1.755c-2.7,1.17-5.161,2.686-7.38,4.545c-2.22,1.86-4.185,3.96-5.895,6.3s-3.136,4.68-4.275,7.02
						c-0.241,0.241-0.465,0.421-0.675,0.54c-0.211,0.121-0.526,0.181-0.945,0.181C0.209,73.073,0,72.593,0,71.813
						c1.139-2.52,2.64-5.04,4.5-7.56c1.859-2.521,4.005-4.771,6.435-6.75c2.43-1.98,5.114-3.601,8.055-4.86
						c2.939-1.26,6.089-1.89,9.45-1.89c4.019,0,7.77,0.886,11.25,2.655c3.479,1.771,6.51,4.096,9.09,6.976
						c2.579,2.88,4.604,6.165,6.075,9.854c1.47,3.69,2.234,7.456,2.295,11.295c0,3.301-0.54,6.721-1.62,10.261
						c-1.08,3.541-2.625,6.795-4.635,9.765c-2.011,2.97-4.441,5.415-7.29,7.335c-2.851,1.921-6.016,2.88-9.495,2.88
						c-2.4,0-4.561-0.405-6.48-1.215c-1.921-0.81-3.78-1.724-5.58-2.745c-0.481-0.3-0.96-0.569-1.44-0.81
						c-0.481-0.239-0.96-0.479-1.44-0.721l-0.54-0.18c-1.08,1.8-2.295,3.24-3.645,4.32s-2.835,1.62-4.455,1.62
						C9.99,112.043,9.36,111.983,8.64,111.863z M13.86,108.624c1.02-0.721,1.949-1.891,2.79-3.511
						c-1.021-0.54-1.996-0.914-2.925-1.125c-0.931-0.209-1.815-0.314-2.655-0.314c-1.08,0-2.146,0.375-3.195,1.125
						c-1.05,0.751-1.575,1.575-1.575,2.475c0,0.9,0.405,1.53,1.215,1.89c0.81,0.36,1.814,0.54,3.015,0.54
						C11.729,109.703,12.839,109.343,13.86,108.624z"/>
				</g>
			</g>
		</g>
		<g>
			<g>
				<g>
					<path d="M64.169,111.468c-1.44-0.689-2.596-1.575-3.465-2.655c-0.87-1.08-1.514-2.279-1.935-3.6
						c-0.419-1.319-0.689-2.61-0.81-3.87c0-0.181-0.014-0.39-0.045-0.63c-0.029-0.239-0.045-0.45-0.045-0.63
						c0-1.44,0.225-2.984,0.675-4.636c0.45-1.649,1.109-3.18,1.98-4.59c0.869-1.409,1.89-2.624,3.06-3.645
						c1.17-1.02,2.475-1.68,3.915-1.98h2.43c1.499,0.121,2.819,0.78,3.96,1.98c1.139,1.2,1.71,2.641,1.71,4.319
						c0,2.102-0.585,3.735-1.755,4.905s-2.596,2.115-4.275,2.835c-2.761,0.961-5.521,1.44-8.28,1.44h-1.17v0.54
						c0.059,1.14,0.254,2.25,0.585,3.33c0.329,1.079,0.855,2.056,1.575,2.925c0.72,0.87,1.679,1.561,2.88,2.069
						c1.2,0.511,2.7,0.766,4.5,0.766c1.919,0,3.629-0.345,5.13-1.035c1.499-0.689,2.82-1.575,3.96-2.655
						c1.139-1.08,2.129-2.295,2.97-3.645c0.839-1.351,1.62-2.685,2.34-4.005c0.3-0.3,0.66-0.45,1.08-0.45h0.36
						c0.419,0.24,0.63,0.57,0.63,0.99c0,0.24-0.701,0.22-0.76,0.34c-0.72,1.381-1.3,2.915-2.229,4.354
						c-0.931,1.44-1.617,2.852-2.906,4.08c-1.291,1.23-2.806,2.236-4.545,3.016c-1.741,0.78-3.75,1.17-6.03,1.17
						C67.438,112.503,65.609,112.157,64.169,111.468z M68.759,97.113c1.379-0.54,2.504-1.244,3.375-2.114
						c0.869-0.869,1.305-2.025,1.305-3.466c0-1.139-0.421-2.1-1.26-2.88c-0.841-0.779-1.771-1.17-2.79-1.17h-0.45
						c-1.08,0-2.115,0.301-3.105,0.9c-0.99,0.601-1.861,1.381-2.61,2.34c-0.751,0.96-1.381,2.056-1.89,3.285
						c-0.511,1.23-0.855,2.475-1.035,3.734l-0.18,0.811h1.62C64.138,98.553,66.478,98.074,68.759,97.113z"/>
				</g>
			</g>
		</g>
		<g>
			<g>
				<g>
					<path d="M119.428,71.813c-0.299-0.3-0.45-0.689-0.45-1.17c0-0.479,0.151-0.869,0.45-1.17c0.419-0.36,0.81-0.54,1.17-0.54
						c0.419,0,0.81,0.18,1.17,0.54c0.36,0.36,0.54,0.751,0.54,1.17c0,0.421-0.18,0.81-0.54,1.17c-0.36,0.36-0.751,0.54-1.17,0.54
						C120.238,72.353,119.847,72.173,119.428,71.813z M123.793,110.874c-0.81-0.42-1.53-0.96-2.16-1.62s-1.156-1.44-1.575-2.341
						c-0.42-0.899-0.63-1.8-0.63-2.699v-18.63c0-0.779,0.36-1.171,1.08-1.171c0.779,0,1.17,0.392,1.17,1.171v18.63
						c0,0.66,0.135,1.291,0.405,1.89c0.27,0.601,0.63,1.141,1.08,1.62c0.45,0.48,0.945,0.87,1.485,1.17
						c0.54,0.301,1.049,0.45,1.53,0.45c1.2,0,2.279-0.226,3.24-0.675c0.959-0.45,1.875-1.095,2.745-1.936
						c0.869-0.84,1.74-1.859,2.61-3.06c0.869-1.2,1.814-2.579,2.835-4.141l-0.18,0.181c0.12-0.181,0.254-0.405,0.405-0.676
						c0.149-0.27,0.375-0.554,0.675-0.854c0.12-0.3,0.419-0.45,0.9-0.45c0.239,0,0.45,0.09,0.63,0.271
						c0.059,0.12,0.135,0.24,0.225,0.359c0.09,0.121,0.135,0.271,0.135,0.45c0,0.24-0.09,0.45-0.27,0.63l-0.99,2.07
						c-0.9,1.381-1.771,2.67-2.61,3.87c-0.841,1.201-1.771,2.25-2.79,3.149c-1.021,0.9-2.13,1.62-3.33,2.16
						c-1.201,0.54-2.61,0.811-4.23,0.811C125.397,111.503,124.603,111.292,123.793,110.874z"/>
				</g>
			</g>
		</g>
		<g>
			<g>
				<g>
					<path d="M148.677,110.468c-1.861-0.689-3.571-1.62-5.13-2.79c-1.561-1.17-2.85-2.55-3.87-4.141
						c-1.02-1.589-1.53-3.284-1.53-5.085v-0.54c0.121-2.219,0.675-4.198,1.665-5.939c0.99-1.739,2.219-3.195,3.69-4.365
						c1.47-1.17,3.105-2.055,4.905-2.655c1.8-0.599,3.6-0.899,5.399-0.899c1.14,0,2.205,0.09,3.195,0.27
						c0.99,0.181,1.904,0.511,2.745,0.99c0.181,0.121,0.329,0.225,0.45,0.315c0.119,0.09,0.18,0.285,0.18,0.585
						c0,0.24-0.031,0.42-0.09,0.54c-0.301,0.42-0.661,0.63-1.08,0.63h-0.359c-1.501-0.779-3.182-1.17-5.041-1.17
						c-1.561,0-3.104,0.27-4.635,0.81c-1.53,0.54-2.925,1.305-4.185,2.295c-1.26,0.99-2.326,2.221-3.195,3.69
						c-0.871,1.471-1.365,3.136-1.485,4.995v0.27c0,1.44,0.435,2.821,1.305,4.14c0.869,1.321,1.964,2.507,3.285,3.556
						c1.319,1.05,2.79,1.876,4.41,2.475c1.62,0.601,3.209,0.9,4.77,0.9c1.679,0,3.314-0.284,4.905-0.855
						c1.589-0.569,3.074-1.334,4.455-2.295c1.379-0.959,2.623-2.1,3.734-3.42c1.109-1.319,2.055-2.759,2.835-4.32
						c0.12-0.299,0.3-0.494,0.54-0.585c0.239-0.09,0.45-0.135,0.63-0.135h0.45c0.419,0.301,0.63,0.661,0.63,1.08
						c0,0.24-0.061,0.421-0.18,0.54c-0.841,1.681-1.89,3.256-3.149,4.725c-1.261,1.472-2.656,2.761-4.186,3.87
						c-1.53,1.111-3.195,1.98-4.995,2.61s-3.69,0.945-5.67,0.945C152.336,111.503,150.536,111.157,148.677,110.468z"/>
				</g>
			</g>
		</g>
		<g>
			<g>
				<g>
					<path d="M199.302,110.828c-0.811-0.449-1.53-1.034-2.16-1.755c-0.63-0.72-1.141-1.499-1.53-2.34
						c-0.391-0.84-0.616-1.679-0.675-2.52c-1.561,1.921-3.6,3.615-6.12,5.085c-2.52,1.471-5.22,2.205-8.1,2.205
						c-1.261,0-2.521-0.271-3.78-0.811s-2.4-1.26-3.42-2.16c-1.021-0.899-1.86-1.948-2.521-3.149c-0.659-1.2-0.99-2.46-0.99-3.78
						v-0.09c0-3.119,0.9-5.805,2.7-8.055c1.801-2.25,4.006-4.08,6.615-5.49c2.61-1.409,5.34-2.444,8.19-3.105
						c2.849-0.659,5.324-0.989,7.425-0.989h0.63h0.271h0.27c0.119,0.12,0.21,0.18,0.27,0.18s0.149,0.031,0.271,0.09
						c0.059,0.061,0.09,0.15,0.09,0.27c0,0.061,0.06,0.151,0.18,0.271v0.27l0.091,14.761c0.119,0.061,0.18,0.121,0.18,0.18v0.09
						v0.36c0,0.061-0.031,0.09-0.09,0.09h-0.09l0.18,3.24c0,0.661,0.135,1.32,0.405,1.979c0.27,0.661,0.63,1.26,1.08,1.8
						c0.449,0.54,0.959,0.99,1.529,1.351c0.569,0.359,1.125,0.54,1.665,0.54c0.66,0,1.499-0.345,2.521-1.035
						c1.02-0.689,2.129-1.575,3.33-2.655c1.02-1.02,2.054-2.219,3.104-3.6c1.049-1.38,1.965-2.669,2.745-3.87v0.09
						c0.119-0.3,0.284-0.479,0.495-0.54c0.209-0.059,0.405-0.09,0.585-0.09c0.239,0,0.45,0.09,0.63,0.27l-0.09-0.18
						c0.419,0.301,0.63,0.661,0.63,1.08c0,0.24-0.09,0.45-0.27,0.63c-0.781,1.201-1.726,2.49-2.835,3.87
						c-1.111,1.381-2.266,2.671-3.466,3.87c-1.2,1.08-2.43,2.07-3.689,2.97c-1.26,0.9-2.49,1.351-3.69,1.351
						C200.967,111.503,200.111,111.278,199.302,110.828z M185.531,108.443c1.53-0.599,2.925-1.379,4.186-2.34
						c1.26-0.959,2.34-1.994,3.239-3.104c0.9-1.11,1.53-2.175,1.891-3.195l-0.181-13.771c-1.979,0.061-4.261,0.392-6.84,0.99
						c-2.58,0.601-5.025,1.53-7.335,2.79c-2.311,1.26-4.274,2.835-5.895,4.725c-1.62,1.891-2.431,4.156-2.431,6.796v0.18
						c0,1.021,0.255,1.995,0.766,2.925c0.509,0.931,1.17,1.755,1.979,2.475c0.811,0.721,1.725,1.306,2.745,1.756
						c1.02,0.449,2.039,0.675,3.061,0.675C182.396,109.343,184.001,109.043,185.531,108.443z"/>
				</g>
			</g>
		</g>
		<g>
			<g>
				<g>
					<path d="M213.116,78.383c0-0.3,0.121-0.569,0.359-0.811c0.241-0.238,0.511-0.359,0.811-0.359h6.39v-17.73
						c0-0.3,0.12-0.569,0.36-0.81c0.239-0.239,0.509-0.36,0.81-0.36c0.3,0,0.555,0.121,0.766,0.36c0.209,0.24,0.314,0.51,0.314,0.81
						v17.73h8.101c0.238,0,0.479,0.121,0.72,0.359c0.239,0.241,0.36,0.511,0.36,0.811c0,0.301-0.121,0.54-0.36,0.72
						c-0.24,0.18-0.481,0.271-0.72,0.271h-8.101v25.47c0,1.381,0.555,2.461,1.665,3.24c1.109,0.78,2.265,1.17,3.465,1.17
						c2.399,0,4.41-0.99,6.03-2.971c1.62-1.979,3.359-4.648,5.22-8.01c0.12-0.3,0.284-0.479,0.495-0.54
						c0.21-0.059,0.405-0.09,0.585-0.09c0.239,0,0.45,0.09,0.63,0.27l-0.09-0.18c0.419,0.301,0.63,0.601,0.63,0.9
						c0,0.121-0.03,0.24-0.09,0.359c-0.061,0.121-0.09,0.241-0.09,0.36c-0.96,1.62-1.89,3.165-2.79,4.635
						c-0.9,1.472-1.876,2.745-2.925,3.825c-1.051,1.08-2.176,1.95-3.375,2.61c-1.201,0.661-2.61,0.989-4.23,0.989
						c-0.78,0-1.605-0.135-2.475-0.404c-0.87-0.271-1.665-0.675-2.385-1.215c-0.721-0.54-1.32-1.216-1.8-2.025
						c-0.481-0.81-0.721-1.784-0.721-2.925v-11.97c-1.561,2.34-3.21,4.53-4.95,6.569c-0.24,0.24-0.51,0.36-0.81,0.36
						c-0.059,0-0.18-0.015-0.36-0.045c-0.18-0.029-0.329-0.104-0.449-0.226c-0.239-0.119-0.36-0.419-0.36-0.899
						c0-0.239,0.09-0.45,0.27-0.63c1.2-1.38,2.37-2.835,3.511-4.365c1.139-1.53,2.189-3.225,3.149-5.085v-9.18h-6.39
						C213.507,79.374,213.116,79.044,213.116,78.383z"/>
				</g>
			</g>
		</g>
		<g>
			<g>
				<g>
					<path d="M245.605,110.468c-1.44-0.689-2.596-1.575-3.465-2.655c-0.871-1.08-1.515-2.279-1.936-3.6
						c-0.419-1.319-0.688-2.61-0.81-3.87c0-0.181-0.015-0.39-0.045-0.63c-0.03-0.239-0.045-0.45-0.045-0.63
						c0-1.44,0.225-2.984,0.675-4.636c0.45-1.649,1.109-3.18,1.979-4.59c0.869-1.409,1.891-2.624,3.061-3.645
						c1.17-1.02,2.475-1.68,3.915-1.98h2.43c1.499,0.121,2.819,0.78,3.96,1.98c1.139,1.2,1.71,2.641,1.71,4.319
						c0,2.102-0.585,3.735-1.755,4.905s-2.596,2.115-4.275,2.835c-2.76,0.961-5.521,1.44-8.279,1.44h-1.17v0.54
						c0.059,1.14,0.254,2.25,0.585,3.33c0.329,1.079,0.854,2.056,1.574,2.925c0.721,0.87,1.68,1.561,2.881,2.069
						c1.199,0.511,2.699,0.766,4.5,0.766c1.919,0,3.629-0.345,5.13-1.035c1.499-0.689,2.819-1.575,3.96-2.655
						c1.139-1.08,2.129-2.295,2.97-3.645c0.84-1.351,1.62-2.685,2.34-4.005c0.3-0.3,0.66-0.45,1.08-0.45h0.36
						c0.419,0.24,0.63,0.57,0.63,0.99c0,0.24-0.031,0.42-0.09,0.54c-0.721,1.381-1.546,2.79-2.476,4.229
						c-0.931,1.44-2.04,2.776-3.33,4.005c-1.291,1.23-2.805,2.236-4.545,3.016c-1.74,0.78-3.75,1.17-6.029,1.17
						C248.875,111.503,247.045,111.157,245.605,110.468z M250.195,96.113c1.38-0.54,2.505-1.244,3.375-2.114
						c0.869-0.869,1.305-2.025,1.305-3.466c0-1.139-0.42-2.1-1.26-2.88c-0.841-0.779-1.771-1.17-2.79-1.17h-0.45
						c-1.08,0-2.114,0.301-3.104,0.9c-0.99,0.601-1.86,1.381-2.61,2.34c-0.751,0.96-1.381,2.056-1.89,3.285
						c-0.511,1.23-0.855,2.475-1.035,3.734l-0.18,0.811h1.619C245.574,97.553,247.914,97.074,250.195,96.113z"/>
				</g>
			</g>
		</g>
		<g>
			<g>
				<g>
					<path d="M276.924,111.143c-0.72-0.18-1.395-0.464-2.024-0.855c-0.63-0.389-1.156-0.854-1.575-1.395
						c-0.421-0.54-0.63-1.17-0.63-1.89c0-1.38,0.345-2.415,1.035-3.105c0.688-0.688,1.574-1.184,2.654-1.485
						c0.779-0.18,1.665-0.283,2.655-0.314c0.99-0.029,2.084-0.045,3.285-0.045h1.35l2.07-0.18l0.45-0.9
						c0.059-0.3,0.09-0.54,0.09-0.72c0-0.239,0-0.51,0-0.811c0-1.02-0.735-2.055-2.205-3.104c-1.471-1.05-3.465-2.325-5.985-3.825
						h0.09c-0.841-0.419-1.619-0.855-2.34-1.305c-0.72-0.45-1.471-0.975-2.25-1.575l-0.27,0.54c-0.481,0.72-0.977,1.455-1.485,2.205
						c-0.511,0.751-1.005,1.484-1.484,2.205c-1.021,1.439-1.98,2.97-2.881,4.59c-0.42,0.42-0.78,0.63-1.079,0.63h-0.45
						c-0.239-0.06-0.405-0.194-0.495-0.405c-0.09-0.209-0.135-0.405-0.135-0.585c0-0.239,0.09-0.45,0.27-0.63l-0.09,0.09
						c0.54-0.899,0.976-1.62,1.305-2.16s0.615-1.004,0.855-1.395c0.239-0.39,0.464-0.766,0.675-1.125
						c0.21-0.36,0.464-0.779,0.765-1.26c0.3-0.479,0.63-1.005,0.99-1.575c0.36-0.569,0.689-1.095,0.99-1.575l0.72-1.08
						c-0.899-0.779-1.65-1.604-2.25-2.475c-0.601-0.869-0.899-1.965-0.899-3.285c0-0.779,0.314-1.634,0.944-2.565
						c0.63-0.93,1.425-1.454,2.385-1.575h0.271c0.9,0,1.829,0.315,2.79,0.945c0.959,0.63,1.499,1.516,1.62,2.655
						c0,0.841-0.181,1.786-0.54,2.835c-0.36,1.051-0.871,2.115-1.53,3.195c0.3,0.24,0.811,0.585,1.53,1.034
						c0.72,0.45,1.319,0.796,1.8,1.035c0.18,0.121,0.39,0.256,0.63,0.405c0.239,0.15,0.45,0.285,0.63,0.405l-0.09-0.181l0.99,0.54
						c0.959,0.54,1.949,1.111,2.97,1.71c1.02,0.601,1.936,1.246,2.745,1.936c0.81,0.69,1.485,1.426,2.025,2.205
						c0.54,0.78,0.81,1.62,0.81,2.52c0,0.421-0.031,0.796-0.09,1.125c-0.061,0.331-0.121,0.646-0.18,0.945l-0.181,0.36
						c1.8,0,3.465-0.255,4.995-0.766c1.53-0.509,2.714-1.395,3.555-2.655c0.42-0.54,0.84-0.81,1.261-0.81
						c0.238,0,0.449,0.09,0.63,0.27l-0.09-0.18c0.419,0.301,0.63,0.661,0.63,1.08c0,0.061-0.031,0.135-0.09,0.225
						c-0.061,0.091-0.091,0.196-0.091,0.315c-1.26,1.921-2.91,3.181-4.949,3.78c-2.041,0.601-4.141,0.96-6.301,1.08h-0.27
						l-0.63,1.17c-0.78,1.74-1.921,3.181-3.42,4.319c-1.501,1.141-3.03,1.71-4.59,1.71
						C278.274,111.413,277.645,111.323,276.924,111.143z M271.254,84.098c0.18,0.571,0.509,1.096,0.99,1.575l0.54,0.54l0.27-0.271
						v0.09c0.36-0.778,0.66-1.484,0.9-2.114c0.239-0.631,0.36-1.185,0.36-1.665v-0.45c0-0.3-0.181-0.585-0.54-0.855
						c-0.36-0.27-0.721-0.404-1.08-0.404h-0.45c-0.301,0.061-0.585,0.27-0.855,0.63c-0.27,0.359-0.404,0.751-0.404,1.17
						C270.984,82.944,271.074,83.529,271.254,84.098z M274.494,87.833v-0.091C274.373,87.743,274.373,87.774,274.494,87.833z
						 M282.099,107.903c1.11-0.899,1.994-2.039,2.655-3.42l0.09-0.27h-2.52c-1.021,0-1.98,0.016-2.88,0.045
						c-0.9,0.03-1.71,0.135-2.431,0.314c-1.439,0.36-2.159,1.17-2.159,2.431c0,0.601,0.435,1.125,1.305,1.574
						c0.869,0.45,1.755,0.676,2.655,0.676C279.895,109.253,280.988,108.803,282.099,107.903z"/>
				</g>
			</g>
		</g>
		<g>
			<g>
				<g>
					<path d="M296.454,78.383c0-0.3,0.121-0.569,0.359-0.811c0.241-0.238,0.511-0.359,0.811-0.359h6.39v-17.73
						c0-0.3,0.12-0.569,0.36-0.81c0.239-0.239,0.509-0.36,0.81-0.36c0.3,0,0.555,0.121,0.766,0.36c0.209,0.24,0.314,0.51,0.314,0.81
						v17.73h8.101c0.238,0,0.479,0.121,0.72,0.359c0.239,0.241,0.36,0.511,0.36,0.811c0,0.301-0.121,0.54-0.36,0.72
						c-0.24,0.18-0.481,0.271-0.72,0.271h-8.101v25.47c0,1.381,0.555,2.461,1.665,3.24c1.109,0.78,2.265,1.17,3.465,1.17
						c2.399,0,4.41-0.99,6.03-2.971c1.62-1.979,3.359-4.648,5.221-8.01c0.119-0.3,0.283-0.479,0.494-0.54
						c0.211-0.059,0.406-0.09,0.586-0.09c0.238,0,0.449,0.09,0.629,0.27l-0.09-0.18c0.42,0.301,0.631,0.601,0.631,0.9
						c0,0.121-0.031,0.24-0.09,0.359c-0.061,0.121-0.09,0.241-0.09,0.36c-0.961,1.62-1.891,3.165-2.791,4.635
						c-0.9,1.472-1.876,2.745-2.925,3.825c-1.051,1.08-2.176,1.95-3.375,2.61c-1.201,0.661-2.61,0.989-4.23,0.989
						c-0.78,0-1.605-0.135-2.475-0.404c-0.87-0.271-1.665-0.675-2.385-1.215c-0.721-0.54-1.32-1.216-1.8-2.025
						c-0.481-0.81-0.721-1.784-0.721-2.925v-11.97c-1.561,2.34-3.21,4.53-4.95,6.569c-0.24,0.24-0.51,0.36-0.81,0.36
						c-0.059,0-0.18-0.015-0.36-0.045c-0.18-0.029-0.329-0.104-0.449-0.226c-0.239-0.119-0.36-0.419-0.36-0.899
						c0-0.239,0.09-0.45,0.27-0.63c1.2-1.38,2.37-2.835,3.511-4.365c1.139-1.53,2.189-3.225,3.149-5.085v-9.18h-6.39
						C296.845,79.374,296.454,79.044,296.454,78.383z"/>
				</g>
			</g>
		</g>
		<g>
			<g>
				<g>
					<path d="M356.213,110.874c-0.779-0.42-1.439-0.975-1.979-1.665c-0.541-0.689-0.977-1.425-1.307-2.205
						c-0.33-0.779-0.494-1.53-0.494-2.25V91.703c0-1.26-0.166-2.488-0.494-3.689c-0.332-1.199-0.916-1.8-1.756-1.8
						c-1.861,0-3.6,0.42-5.221,1.26c-1.619,0.841-3.18,1.95-4.68,3.33c-0.84,0.78-1.635,1.561-2.385,2.34
						c-0.75,0.78-1.516,1.591-2.295,2.43c-0.6,0.661-1.17,1.275-1.709,1.846c-0.541,0.57-1.111,1.155-1.711,1.755v11.16
						c0,0.42-0.121,0.72-0.359,0.899c-0.24,0.18-0.482,0.271-0.721,0.271c-0.721,0-1.08-0.39-1.08-1.17V99.443
						c-0.061-0.059-0.09-0.27-0.09-0.63v-0.09c0-0.119,0.029-0.21,0.09-0.271v-7.02l-2.16,3.42l-3.061,4.59l0.092-0.09
						c-0.121,0.18-0.227,0.33-0.316,0.45c-0.09,0.121-0.285,0.18-0.584,0.18c-0.18,0-0.361-0.059-0.541-0.18
						c-0.238-0.06-0.404-0.194-0.494-0.405c-0.09-0.209-0.135-0.405-0.135-0.585c0-0.239,0.09-0.45,0.27-0.63h-0.09
						c0.359-0.659,0.75-1.29,1.17-1.89c0.418-0.6,0.84-1.229,1.26-1.891c0.66-0.959,1.273-1.919,1.846-2.88
						c0.568-0.959,1.154-1.919,1.754-2.88l0.99-1.26v-31.23c0-2.64,0.42-4.799,1.26-6.48c0.48-0.9,1.08-1.665,1.801-2.295
						c0.719-0.63,1.68-0.945,2.879-0.945c1.08,0,2.025,0.465,2.836,1.395c0.811,0.931,1.498,2.056,2.07,3.375
						c0.568,1.32,1.004,2.715,1.305,4.185c0.299,1.471,0.449,2.745,0.449,3.825c0,4.68-0.824,9.18-2.475,13.5
						c-1.65,4.319-3.734,8.46-6.254,12.42l-1.711,2.88v8.1c0.299-0.299,0.586-0.599,0.855-0.899c0.27-0.3,0.553-0.6,0.855-0.9
						c1.139-1.199,2.309-2.414,3.51-3.645c1.199-1.229,2.475-2.341,3.824-3.33c1.35-0.99,2.76-1.785,4.23-2.386
						c1.469-0.599,3.045-0.899,4.725-0.899c0.959,0,1.74,0.285,2.34,0.854c0.6,0.571,1.049,1.261,1.35,2.07s0.51,1.651,0.631,2.521
						c0.119,0.87,0.18,1.605,0.18,2.204v13.051c0,1.08,0.42,2.114,1.26,3.104s1.77,1.485,2.791,1.485
						c1.26,0,2.443-0.345,3.555-1.035c1.109-0.689,2.174-1.575,3.195-2.655c0.719-0.839,1.484-1.845,2.295-3.015
						c0.809-1.17,1.604-2.415,2.385-3.735l0.9-1.17l-0.182,0.18c0.121-0.299,0.256-0.464,0.406-0.494
						c0.148-0.03,0.314-0.045,0.494-0.045c0.301,0,0.541,0.06,0.721,0.18c0.299,0.121,0.449,0.42,0.449,0.899
						c0,0.241-0.031,0.392-0.09,0.45c-0.121,0.301-0.24,0.556-0.359,0.766c-0.121,0.211-0.359,0.525-0.721,0.944h0.18
						c-0.719,1.141-1.529,2.34-2.43,3.601c-0.9,1.26-1.889,2.43-2.969,3.51s-2.281,1.979-3.602,2.7c-1.32,0.72-2.73,1.08-4.229,1.08
						C357.834,111.503,356.992,111.292,356.213,110.874z M332.184,83.513c2.398-3.899,4.379-7.875,5.939-11.925
						c1.561-4.051,2.34-8.175,2.34-12.375c0-1.02-0.135-2.16-0.404-3.42c-0.27-1.261-0.645-2.489-1.125-3.69
						c-0.48-1.139-0.977-1.994-1.484-2.565c-0.512-0.569-1.006-0.855-1.486-0.855c-1.141,0-2.01,0.63-2.609,1.89
						c-0.301,0.78-0.57,1.651-0.811,2.61c-0.24,0.96-0.359,1.95-0.359,2.97V83.513z"/>
				</g>
			</g>
		</g>
		<g>
			<g>
				<g>
					<path d="M377.004,110.468c-1.441-0.689-2.596-1.575-3.465-2.655c-0.871-1.08-1.516-2.279-1.936-3.6
						c-0.42-1.319-0.689-2.61-0.811-3.87c0-0.181-0.014-0.39-0.045-0.63c-0.029-0.239-0.045-0.45-0.045-0.63
						c0-1.44,0.225-2.984,0.676-4.636c0.449-1.649,1.109-3.18,1.979-4.59c0.869-1.409,1.891-2.624,3.061-3.645
						c1.17-1.02,2.475-1.68,3.916-1.98h2.43c1.498,0.121,2.818,0.78,3.959,1.98c1.139,1.2,1.711,2.641,1.711,4.319
						c0,2.102-0.586,3.735-1.756,4.905s-2.596,2.115-4.275,2.835c-2.76,0.961-5.52,1.44-8.279,1.44h-1.17v0.54
						c0.059,1.14,0.254,2.25,0.586,3.33c0.328,1.079,0.854,2.056,1.574,2.925c0.721,0.87,1.68,1.561,2.881,2.069
						c1.199,0.511,2.699,0.766,4.5,0.766c1.918,0,3.629-0.345,5.129-1.035c1.5-0.689,2.82-1.575,3.961-2.655
						c1.139-1.08,2.129-2.295,2.969-3.645c0.84-1.351,1.621-2.685,2.34-4.005c0.301-0.3,0.66-0.45,1.08-0.45h0.361
						c0.418,0.24,0.629,0.57,0.629,0.99c0,0.24-0.031,0.42-0.09,0.54c-0.721,1.381-1.545,2.79-2.475,4.229
						c-0.932,1.44-2.041,2.776-3.33,4.005c-1.291,1.23-2.805,2.236-4.545,3.016c-1.74,0.78-3.75,1.17-6.029,1.17
						C380.273,111.503,378.443,111.157,377.004,110.468z M381.594,96.113c1.379-0.54,2.504-1.244,3.375-2.114
						c0.869-0.869,1.305-2.025,1.305-3.466c0-1.139-0.42-2.1-1.26-2.88c-0.842-0.779-1.771-1.17-2.791-1.17h-0.449
						c-1.08,0-2.115,0.301-3.105,0.9c-0.99,0.601-1.859,1.381-2.609,2.34c-0.752,0.96-1.381,2.056-1.891,3.285
						c-0.51,1.23-0.855,2.475-1.035,3.734l-0.18,0.811h1.619C376.973,97.553,379.312,97.074,381.594,96.113z"/>
				</g>
			</g>
		</g>
		<g>
			<g>
				<g>
					<path d="M413.857,110.828c-0.932-0.389-1.771-0.929-2.52-1.619c-0.752-0.689-1.381-1.47-1.891-2.341
						c-0.51-0.869-0.766-1.755-0.766-2.654c0-1.801,0.18-3.45,0.541-4.95c0.359-1.499,0.779-2.909,1.26-4.23
						c0.238-0.778,0.463-1.515,0.674-2.205c0.211-0.688,0.346-1.273,0.406-1.755l0.18-1.17l-0.18-0.09c0-0.119-0.33-0.329-0.99-0.63
						c-0.301-0.3-0.662-0.585-1.08-0.855c-0.42-0.27-0.781-0.464-1.08-0.585c-0.301-0.119-0.541-0.254-0.721-0.404
						c-0.18-0.149-0.42-0.284-0.719-0.405h-0.271v0.18c-0.84,2.102-1.965,4.261-3.375,6.48c-1.41,2.221-2.984,4.2-4.725,5.939
						c-0.301,0.302-0.539,0.45-0.719,0.45c-0.42,0-0.689-0.148-0.811-0.45c-0.24-0.059-0.359-0.299-0.359-0.72
						c0-0.3,0.119-0.569,0.359-0.81c1.619-1.56,3.09-3.39,4.41-5.49c1.318-2.1,2.369-4.17,3.15-6.21l0.18-0.63l-1.441-1.17
						c-1.26-0.959-1.889-2.07-1.889-3.33c0-0.84,0.283-1.665,0.855-2.476c0.568-0.81,1.334-1.273,2.295-1.395h0.27
						c0.719,0,1.484,0.27,2.295,0.81s1.215,1.351,1.215,2.431c0,1.26-0.27,2.641-0.811,4.14l-0.09,0.09l0.631,0.36
						c0.18,0.121,0.359,0.24,0.539,0.359c0.18,0.121,0.391,0.241,0.631,0.36l-0.18-0.18c0.418,0.18,0.809,0.375,1.17,0.585
						c0.359,0.211,0.719,0.404,1.08,0.585c0.059,0.061,0.148,0.135,0.27,0.225c0.119,0.09,0.238,0.195,0.359,0.315
						c0.359,0.24,0.75,0.54,1.17,0.899c0.42,0.36,0.66,0.781,0.721,1.261v0.27c0,0.841-0.121,1.696-0.359,2.565
						c-0.242,0.87-0.512,1.815-0.811,2.835c-0.361,1.26-0.752,2.654-1.17,4.185c-0.422,1.53-0.631,3.136-0.631,4.815
						c0,0.601,0.18,1.2,0.541,1.8c0.359,0.601,0.809,1.141,1.35,1.62c0.539,0.48,1.139,0.87,1.799,1.17
						c0.66,0.301,1.291,0.45,1.891,0.45c1.32,0,2.551-0.345,3.689-1.035c1.141-0.689,2.221-1.575,3.24-2.655s1.98-2.264,2.881-3.555
						c0.9-1.29,1.77-2.565,2.609-3.825v0.09c0.119-0.419,0.48-0.63,1.08-0.63c0.18,0,0.33,0.031,0.451,0.09
						c0.479,0.301,0.719,0.661,0.719,1.08c0,0.061-0.031,0.166-0.09,0.315c-0.061,0.15-0.09,0.256-0.09,0.314
						c-0.842,1.201-1.74,2.506-2.699,3.915c-0.961,1.41-2.025,2.716-3.195,3.915c-1.17,1.201-2.461,2.191-3.871,2.97
						c-1.41,0.781-2.984,1.17-4.725,1.17C415.672,111.413,414.787,111.217,413.857,110.828z M404.812,82.883l0.719,0.63l0.182-0.54
						c0.18-0.479,0.299-0.93,0.359-1.35c0.059-0.42,0.09-0.779,0.09-1.08c0-0.3-0.15-0.54-0.449-0.721
						c-0.303-0.18-0.602-0.27-0.9-0.27c-0.301,0.121-0.572,0.346-0.811,0.675c-0.24,0.33-0.359,0.646-0.359,0.945
						C403.643,81.893,404.031,82.464,404.812,82.883z"/>
				</g>
			</g>
		</g>
	</g>
	<g>
		<g id="XMLID_1_">
			<g>
			</g>
			<g>
				<g>
					<g>
						<g>
							<g>
								<g>
									<g>
										<path d="M125.988,184.174c-2.487,0-4.58-1.469-6.961-3.139l-0.104-0.073c-4.917-2.767-9.743-7.206-13.246-12.19
											c-4.104-5.866-6.304-12.666-8.432-19.242c-1.095-3.383-2.224-6.874-3.599-10.176l-0.427-0.03l-0.208-0.899
											c-1.4-6.053-3.12-12.14-5.259-18.609c-0.225-0.77-0.472-1.566-0.733-2.412c-1.416-4.577-3.355-10.845-2.739-15.64
											c0.081-0.625,0.205-1.223,0.371-1.783c-0.516-0.771-0.95-1.691-1.316-2.791c-0.783-2.305-1.156-5.084-1.485-7.537
											c-0.232-1.73-0.452-3.365-0.78-4.638c-0.455-2.009-1.06-4.012-1.646-5.949c-1.065-3.522-2.166-7.165-2.451-10.99
											c-0.059-1.877,0.083-3.638,0.22-5.341c0.279-3.463,0.542-6.734-0.944-9.901c-0.534-1.155-1.205-2.296-1.853-3.4
											c-2.474-4.209-5.277-8.979,0.827-13.83l0.383-0.304l0.488,0.036c0.199-0.075,0.394-0.156,0.589-0.24
											c6.682-2.688,10.75-7.075,14.071-15.158l1.008-2.659c2.125-5.633,5.339-14.149,12.816-16.623
											c3.366-1.197,10.984-0.909,15.199,2.289c2.092,1.588,3.109,3.716,2.94,6.154c-0.067,0.99-0.268,2.222-1.231,2.963
											c-0.985,0.757-2.272,0.617-3.153,0.447l-0.121-0.029c-2.269-0.678-2.47-2.162-2.59-3.048
											c-0.06-0.438-0.096-0.632-0.224-0.778c-2.438-2.51-4.084-3.018-7.01-2.116c-5.325,1.514-9.963,6.259-12.129,12.392
											c-0.282,0.807-0.521,1.64-0.71,2.47c-1.708,7.163,3.487,11.255,8.988,15.588l1.852,1.459l-0.774,0.412
											c1.736,3.765,1.909,8.937,2.062,13.516c0.055,1.65,0.107,3.208,0.229,4.566c0.406,5.581,1.103,11.014,1.776,16.268
											l0.068,0.535c0.726,6.477,0.865,11.715,0.467,17.534l-0.09,1.272c-0.407,5.692-0.728,10.189,2.045,15.175l0.051,0.103
											c1.834,4.157,2.204,8.887,2.562,13.461c0.126,1.614,0.245,3.14,0.426,4.635c0.46,3.15,1.005,6.396,1.531,9.535
											c0.526,3.131,1.069,6.37,1.535,9.554c0.379,2.245,0.649,4.492,0.911,6.665c0.553,4.596,1.075,8.936,2.577,13.375
											c0.731,2.249,2.036,5.418,4.128,7.819c0.914,1.052,2.054,1.895,3.262,2.787c1.863,1.378,3.789,2.802,4.959,5.096
											l0.287,0.562l-0.282,0.57c-0.583,1.17-7.089,2.203-7.155,2.213C126.63,184.15,126.306,184.174,125.988,184.174z
											 M95.237,136.962l0.11,0.008l0.3,0.698c1.556,3.612,2.787,7.415,3.976,11.092c2.071,6.4,4.213,13.02,8.1,18.576
											c3.307,4.705,7.855,8.889,12.477,11.476l0.263,0.177c2.429,1.703,4.185,2.93,6.128,2.639
											c1.337-0.199,3.203-0.647,4.472-0.99c-0.917-1.136-2.13-2.032-3.396-2.968c-1.263-0.934-2.568-1.899-3.661-3.156
											c-2.368-2.719-3.817-6.218-4.615-8.674c-1.58-4.671-2.142-9.344-2.686-13.863c-0.258-2.145-0.524-4.361-0.897-6.575
											c-0.466-3.185-1.007-6.41-1.531-9.529c-0.529-3.151-1.076-6.41-1.544-9.618c-0.191-1.578-0.318-3.201-0.44-4.77
											c-0.339-4.346-0.691-8.839-2.333-12.596c-3.104-5.615-2.743-10.668-2.326-16.516l0.089-1.265
											c0.387-5.661,0.251-10.765-0.455-17.065l-0.066-0.515c-0.678-5.288-1.379-10.755-1.788-16.383
											c-0.126-1.407-0.18-3-0.236-4.686c-0.146-4.387-0.312-9.348-1.881-12.652c-1.204,0.163-2.328-0.273-3.346-0.701
											c-0.79-0.332-1.525-0.639-2.3-0.613c-0.875,0.039-1.577,0.371-2.389,0.755c-1.108,0.524-2.37,1.113-4.169,0.993
											c-1.52-0.105-2.852-0.783-4.028-1.38c-0.955-0.485-1.857-0.944-2.661-1c-0.836-0.051-1.673,0.16-2.559,0.387
											c-1.519,0.39-3.395,0.873-5.121-0.479c-0.012,0.004-0.024,0.008-0.036,0.013l-0.248,0.088l-0.033-0.002
											c-3.759,3.199-2.516,5.773,0.144,10.301c0.679,1.156,1.381,2.351,1.964,3.611c1.766,3.761,1.463,7.521,1.17,11.157
											c-0.132,1.635-0.268,3.325-0.216,5.009c0.261,3.497,1.322,7.005,2.348,10.398c0.598,1.979,1.216,4.025,1.682,6.084
											c0.356,1.38,0.585,3.086,0.828,4.893c0.329,2.454,0.67,4.991,1.376,7.072c0.363,1.088,0.803,1.956,1.311,2.588
											l0.445,0.555L87.21,100.2c-0.211,0.564-0.363,1.198-0.451,1.883c-0.547,4.256,1.3,10.224,2.648,14.581
											c0.266,0.86,0.517,1.67,0.732,2.408C92.185,125.255,93.859,131.13,95.237,136.962z M84.136,35.351
											c0.144,0,0.289,0.005,0.436,0.015c1.314,0.09,2.49,0.688,3.626,1.265c1.057,0.538,2.054,1.045,3.067,1.115
											c1.16,0.081,1.975-0.309,2.927-0.758c0.923-0.437,1.969-0.932,3.352-0.993c0.829-0.037,1.568,0.133,2.24,0.361
											c-4.502-3.847-8.352-8.47-6.669-15.523c0.014-0.061,0.028-0.121,0.042-0.182l-0.078,0.205
											c-3.075,7.486-6.763,12.065-12.312,15.085c0.144-0.035,0.296-0.074,0.456-0.115
											C82.093,35.602,83.068,35.351,84.136,35.351z M109.251,2.499c-1.538,0-2.914,0.185-3.863,0.522
											c-4.705,1.557-7.446,5.913-9.681,11.108c2.792-4.93,7.131-8.612,11.97-9.988c4.37-1.346,6.901,0.081,9.559,2.822
											c0.678,0.775,0.784,1.561,0.862,2.134c0.09,0.665,0.104,0.767,0.769,0.971c0.885,0.162,1.092,0.016,1.094,0.014
											c0.008-0.006,0.194-0.16,0.261-1.153c0.111-1.602-0.529-2.907-1.958-3.991C116.014,3.229,112.312,2.499,109.251,2.499z"/>
									</g>
								</g>
							</g>
						</g>
					</g>
				</g>
			</g>
		</g>
	</g>
	<g>
		<g>
			<g>
				<g>
					<path d="M108.7,103.499c10.152,4.35,10.896-8.903,12.986-15.413c0.208-0.65-2.197-1.321-2.424-0.613
						c-1.346,4.194-2.466,18.345-9.681,15.254C108.583,102.299,107.138,102.83,108.7,103.499L108.7,103.499z"/>
				</g>
			</g>
		</g>
	</g>
</g>
</svg>
